<svg width="110" height="86" viewBox="0 0 110 86" fill="none" xmlns="http://www.w3.org/2000/svg">
<g clip-path="url(#clip0_1642_30098)">
<path d="M109.96 0.525844C110.028 0.367988 109.902 0.0785851 109.644 0.215394L109.57 0.773154L109.96 0.525844Z" fill="#F3AC5D"/>
<path d="M107.895 0.094357C107.725 0.253091 107.616 0.465986 107.586 0.696453C107.557 0.92692 107.608 1.16056 107.732 1.35721C107.905 0.788924 108.037 0.973091 108.226 0.30483C108.274 0.273321 108.329 0.254288 108.386 0.249462C108.443 0.244635 108.5 0.25417 108.553 0.277202C108.605 0.300234 108.651 0.336025 108.686 0.381298C108.721 0.426571 108.744 0.479881 108.753 0.536355C108.816 0.378498 109.205 0.536356 109.279 0.168023C109.175 0.0993606 109.059 0.0519492 108.936 0.0285351C108.814 0.00512102 108.689 0.00616746 108.567 0.0316102C108.445 0.057053 108.329 0.106388 108.227 0.176767C108.124 0.247146 108.036 0.337175 107.969 0.441644C107.853 0.352192 107.895 0.194333 107.895 0.094357Z" fill="#F3AC5D"/>
<path d="M83.5234 13.9397L83.6971 13.8555C83.6329 13.8681 83.5731 13.8971 83.5234 13.9397Z" fill="#F3AC5D"/>
<path d="M71.8452 27.0934C71.9136 26.9777 71.9083 26.904 71.8452 26.8672C71.8242 26.9829 71.7926 27.0934 71.8452 27.0934Z" fill="#F3AC5D"/>
<path d="M69.6262 29.1966C69.6735 29.1545 69.7103 29.1124 69.7524 29.0703C69.6788 29.1019 69.6156 29.1387 69.6262 29.1966Z" fill="#F3AC5D"/>
<path d="M83.5228 13.9375L83.0703 14.148C83.165 14.29 83.3334 14.069 83.5228 13.9375Z" fill="#F3AC5D"/>
<path d="M104.645 2.46829C104.722 2.41377 104.785 2.34162 104.829 2.25781C104.766 2.30517 104.697 2.34726 104.629 2.38936L104.645 2.46829Z" fill="#F3AC5D"/>
<path d="M89.1094 8.48775L89.2199 8.3983C89.2145 8.31671 89.2022 8.23573 89.183 8.15625L89.1094 8.48775Z" fill="#F3AC5D"/>
<path d="M93.9792 4.94531C93.8529 4.99793 94.0476 5.39784 94.1108 5.58726C94.09 5.51685 94.0873 5.44232 94.1029 5.37059C94.1186 5.29885 94.152 5.23222 94.2002 5.17684C94.1398 5.08806 94.0651 5.00984 93.9792 4.94531Z" fill="#F3AC5D"/>
<path d="M85.7515 11.1649C85.7102 11.1289 85.6618 11.102 85.6094 11.0859C85.6476 11.126 85.6972 11.1535 85.7515 11.1649Z" fill="#F3AC5D"/>
<path d="M7.26204 60.4969C7.26451 60.4707 7.26451 60.4442 7.26204 60.418C7.21994 60.4706 7.21994 60.5022 7.26204 60.4969Z" fill="#F3AC5D"/>
<path d="M0.164062 59.8207L0.253506 59.7786C0.245032 59.6953 0.230959 59.6126 0.211402 59.5312L0.164062 59.8207Z" fill="#F3AC5D"/>
<path d="M66.0742 33.4599C66.0953 33.3705 66.1321 33.2968 66.0742 33.4599V33.4599Z" fill="#F3AC5D"/>
<path d="M55.8118 82.4786C55.7749 82.0471 56.0433 82.247 56.2959 82.3681C56.5484 82.4891 56.7694 82.5575 56.6484 82.0155C56.601 82.105 56.3274 82.0155 56.1222 81.984C55.917 81.9524 55.6592 82.005 55.8118 82.4786Z" fill="#F3AC5D"/>
<path d="M104.487 2.46094C104.415 2.49356 104.341 2.52168 104.266 2.54513C104.345 2.5342 104.42 2.50541 104.487 2.46094Z" fill="#F3AC5D"/>
<path d="M59.8438 44.6216C59.924 44.6273 60.0046 44.6166 60.0805 44.59C60.0003 44.5727 59.9166 44.5838 59.8438 44.6216Z" fill="#F3AC5D"/>
<path d="M65.0916 36.6758L64.918 36.8442C64.9844 36.7976 65.043 36.7408 65.0916 36.6758Z" fill="#F3AC5D"/>
<path d="M58.2856 49.3633C58.2067 49.4685 58.133 49.4843 58.1172 49.6685H58.1856C58.1621 49.6142 58.1593 49.5531 58.1777 49.4969C58.1961 49.4407 58.2345 49.3931 58.2856 49.3633Z" fill="#F3AC5D"/>
<path d="M56.3867 54.1559L56.4973 54.0928L56.5288 53.9297L56.3867 54.1559Z" fill="#F3AC5D"/>
<path d="M22.2149 58.6029C22.1124 58.49 22.0305 58.3599 21.9729 58.2188C22.0834 58.5292 21.3362 58.666 22.2149 58.6029Z" fill="#F3AC5D"/>
<path d="M104.553 2.23438C104.553 2.35014 104.553 2.41328 104.484 2.46064L104.626 2.38697C104.628 2.35743 104.622 2.32803 104.609 2.3014C104.596 2.27477 104.577 2.25174 104.553 2.23438Z" fill="#F3AC5D"/>
<path d="M61.4165 50.9492L61.043 51.6385C61.1888 51.421 61.3139 51.1902 61.4165 50.9492Z" fill="#F3AC5D"/>
<path d="M57.1594 63.5273H56.9805C57.0075 63.5436 57.0384 63.5522 57.0699 63.5522C57.1015 63.5522 57.1324 63.5436 57.1594 63.5273Z" fill="#F3AC5D"/>
<path d="M60.248 53.8086C60.0763 53.8698 59.9226 53.9729 59.8008 54.1085C59.8182 54.1544 59.843 54.1971 59.8744 54.2348L60.248 53.8086Z" fill="#F3AC5D"/>
<path d="M16.8523 59.6033C17.5995 59.556 17.1575 59.0087 17.2838 58.6615C18.1678 58.4247 17.7363 59.0561 18.0625 59.3297C18.5887 59.1298 18.9991 58.5615 19.4201 58.551C19.4569 58.6457 19.5411 58.6772 19.4517 58.7983C20.0147 58.3089 21.2039 58.693 21.8721 58.0721C21.9156 58.1104 21.9482 58.1594 21.9669 58.2142C21.861 57.9633 21.8142 57.6915 21.83 57.4197C22.1721 57.3933 22.4509 57.0198 22.593 57.4197C22.3825 57.4197 22.372 57.5722 22.2773 57.6933L22.6299 57.5144C22.9666 58.0406 22.1458 57.7196 22.1616 58.13C22.8456 57.9143 23.6454 57.4618 24.1821 57.6038C24.3031 58.13 22.9456 57.8038 23.6559 58.2668L22.8298 58.0774C23.4823 58.914 22.3036 58.03 22.9298 58.9246C23.9821 59.0561 24.1242 58.6299 25.1977 58.7614C25.4397 58.4615 25.1134 58.3247 25.3555 58.0195C26.892 57.4933 26.5552 59.3771 27.676 58.672C27.9707 58.3194 28.1022 57.6196 28.8967 58.009L28.6074 58.6141C29.6598 58.6983 29.2283 57.7617 30.3122 58.2089C30.107 58.4405 29.4808 58.3773 29.6387 58.4563C30.328 58.9824 30.1649 58.1353 30.6911 58.1563L30.7805 58.6825C31.8908 58.6299 33.1326 58.3405 34.3744 58.3352C34.2902 58.4931 34.0692 58.6404 34.3429 58.8298C35.1532 58.7619 35.9691 58.8276 36.7581 59.0245C37.5428 59.1972 38.3146 59.424 39.068 59.7033L39.6942 59.3245C39.8257 59.3245 39.9099 59.5612 39.7573 59.6349C40.3098 59.8875 39.8258 59.3455 40.1257 59.2034C40.4624 59.2034 40.5256 59.5244 40.294 59.6349C41.3464 59.3613 43.3302 59.2508 44.3141 59.9191L44.0774 60.019C44.8772 60.34 45.1929 59.2561 45.8822 59.8349L45.7191 59.8875C46.5978 60.1716 47.5607 60.2821 48.45 60.5031C49.2803 60.6525 50.0662 60.987 50.7494 61.4818C51.1809 60.8925 52.4122 62.2238 52.77 61.3608C53.6382 62.0922 53.2962 62.1606 54.5801 62.8973C54.9274 63.0499 55.301 62.529 55.7851 62.5974L55.6272 63.0551L56.406 62.8026L56.5112 63.4708L56.9638 63.5129C56.8164 63.4235 56.7006 63.1762 56.7795 63.0551C57.5109 63.1078 58.1845 64.0286 58.0793 64.2654C58.6055 64.3654 59.1317 64.4864 59.6578 64.6232C59.5316 64.7758 59.2684 64.7074 59.0264 64.7232C59.9998 64.6916 58.9212 65.2494 59.7947 65.2178C59.7631 65.0705 59.9894 64.9968 60.0578 64.9179C60.4175 65.4506 60.9289 65.8631 61.5258 66.1018L61.2311 66.3017C62.0783 67.0174 63.1465 67.654 63.9094 68.617C63.8713 68.5324 63.863 68.4373 63.8859 68.3474C63.9087 68.2574 63.9614 68.1779 64.0353 68.1217C64.1091 68.0655 64.1999 68.036 64.2926 68.0381C64.3854 68.0401 64.4748 68.0735 64.5461 68.1329L64.2304 68.5696C64.625 68.5696 64.1515 68.1329 64.7566 68.296C64.9986 68.7275 64.4777 68.9011 64.1883 68.7959L64.6672 69.1379C64.5619 69.2537 64.4146 69.1958 64.2357 69.28C64.3356 69.28 64.3935 69.3484 64.4356 69.4431C64.4624 69.5573 64.48 69.6734 64.4882 69.7904C64.4882 70.043 64.583 70.2534 64.8881 70.264L64.7619 70.3639C64.8595 70.5877 64.9702 70.8056 65.0934 71.0164C65.1776 71.2164 65.2617 71.4005 65.3459 71.5742L65.4722 71.8373L65.5669 72.1161C65.6301 72.3056 65.6985 72.5055 65.7564 72.737C66.1931 72.6792 66.1457 73.0738 66.5404 73.3316C66.4936 73.7312 66.418 74.1269 66.3142 74.5156C66.2563 74.7155 66.1984 74.9155 66.1563 75.1207L66.0615 75.7468C66.1878 76.3835 66.4036 75.9784 66.6246 76.3046C66.2457 76.3046 66.0458 77.1202 65.8827 76.6256C65.83 76.8729 65.8037 77.0834 65.7616 77.2675C65.7195 77.4517 65.6669 77.6096 65.6301 77.7937L65.5827 78.0726C65.5827 78.1673 65.5301 78.2673 65.4985 78.3725C65.4455 78.6404 65.3734 78.9042 65.2828 79.1618C65.5038 79.1355 65.6564 79.0355 65.73 79.1618C65.6458 79.3986 65.2775 79.5249 65.1407 79.3828V79.3092C65.0584 79.6881 64.832 80.0202 64.5093 80.2352C64.345 80.345 64.1684 80.4351 63.9831 80.5036L63.7147 80.6141C63.6194 80.6402 63.5228 80.6612 63.4253 80.6772C63.2412 80.7141 63.0622 80.7456 62.8991 80.793C62.7338 80.7997 62.5698 80.8244 62.4098 80.8667C62.1274 80.9398 61.8752 81.1 61.6889 81.3245L61.731 81.2718C61.4262 81.4905 61.0935 81.6675 60.7418 81.798C60.284 81.6981 61.0312 81.5086 60.7102 81.2403C60.5373 81.3616 60.3292 81.4227 60.1181 81.4142C59.907 81.4056 59.7046 81.3279 59.542 81.1929C59.3131 80.9516 59.0465 80.7491 58.7528 80.5931C58.8928 80.3394 58.9287 80.0413 58.8528 79.7617C58.7486 79.4241 58.6184 79.0951 58.4634 78.7777C58.1529 77.9884 57.7898 77.136 57.9845 76.4519L57.732 76.5888C57.3847 76.3362 57.7635 76.1731 57.7951 75.9257C57.5794 76.0099 57.6268 76.3257 57.4268 76.1678C57.2241 75.4945 57.0728 74.8067 56.9743 74.1104L56.9059 73.5842C56.9059 73.4053 56.9059 73.2264 56.9059 73.058C56.9059 72.7002 56.9059 72.3371 56.9059 71.9793L56.948 70.9006L57.0953 69.8483C57.2058 69.1379 57.2426 68.4328 57.3847 67.7435C57.5373 66.7332 55.9798 67.0542 56.7427 65.7913L57.2321 66.2123C57.1211 65.683 57.0962 65.1393 57.1584 64.6021C57.2005 64.076 57.2795 63.5498 57.3637 62.9973C57.646 61.9582 57.8066 60.8899 57.8425 59.8138C57.9266 59.9664 58.0793 60.0085 58.0214 60.2032C58.5055 59.8717 58.4686 58.6246 58.174 58.5404C58.295 58.2353 58.4634 58.5404 58.6686 58.3931C58.8738 58.2458 58.7896 57.909 58.758 57.6406C58.7264 57.3723 58.758 57.1145 58.9527 57.0724C59.0264 57.0724 59.0316 57.2302 59.0316 57.3144C58.9475 56.9829 59.5053 56.0463 59.0001 56.1726C59.4421 55.4885 59.2895 54.6677 59.7736 54.1678C59.4684 53.61 60.4787 52.9891 59.8841 52.5892C60.2103 52.7471 60.4576 52.4735 60.6366 52.0946C60.8113 51.7297 60.8841 51.3242 60.847 50.9212C60.9786 51.1633 61.2259 50.6108 61.4206 50.9212C61.6416 50.395 61.731 49.8688 61.3522 49.7952C62.5677 49.1953 61.6574 47.5641 62.8939 47.501C63.2895 45.9023 63.8175 44.3394 64.4725 42.8284C65.0723 43.223 63.6937 44.3596 64.3883 44.6596C64.8461 43.2441 64.7145 42.1865 65.609 41.0131C65.8879 40.7342 65.7669 41.3498 65.8037 41.5392C66.3299 40.1238 67.3087 39.124 67.6875 37.8086C67.7401 37.8454 67.7296 38.0085 67.6875 38.1506C67.8033 37.9191 68.0927 37.6928 67.8033 37.5455L67.7454 37.8086C67.1297 37.9085 67.4612 36.4089 67.2771 36.23C67.8033 37.0982 68.1874 35.2565 68.7872 36.4826C68.8293 36.3037 68.8188 36.0406 68.6188 35.9564C68.8082 35.7775 68.9608 35.7775 69.024 36.13C69.3871 35.2565 68.9188 35.3407 69.3871 34.6409C69.5134 34.7303 69.4713 34.904 69.5765 35.0776C69.5289 34.7966 69.5458 34.5085 69.626 34.235C69.7063 33.9615 69.8477 33.7098 70.0396 33.4991C70.0922 33.5885 70.2395 33.5885 70.1185 33.7674C70.7657 32.715 70.6447 31.5837 71.6287 30.6366C71.9654 31.3575 72.0707 30.3893 72.6021 30.6734L72.8757 29.9894L72.4758 30.0578C72.8547 29.5316 72.8336 28.8475 73.3072 28.516L73.2282 29.0422L73.8334 27.9899L73.2598 28.4003C73.3914 27.7004 72.6179 28.0162 73.2598 27.4268C73.2072 27.6005 73.6387 26.9006 74.1228 26.8638C74.1179 26.6669 74.159 26.4715 74.2431 26.2934C74.3272 26.1152 74.4517 25.9592 74.6069 25.8377C74.8331 25.8377 75.0647 26.3113 75.212 26.3271C75.012 25.8009 76.0066 25.0695 75.8277 24.4328C75.8503 24.5179 75.8925 24.5965 75.951 24.6623C76.0095 24.7281 76.0826 24.7792 76.1644 24.8117L76.0065 24.3591C76.2907 24.2118 76.3696 24.2171 76.5327 24.4065C77.1484 23.7698 75.7698 24.1592 76.6853 23.5488C76.6853 23.633 76.7274 23.6383 76.6853 23.8119C77.4799 23.1068 77.7377 22.0702 78.5428 21.4546C79.1742 21.623 78.106 22.1912 78.7006 22.2702C79.5215 21.1546 80.0477 19.6392 81.0579 18.7236L80.837 18.8605C80.3476 18.1606 81.8315 18.4132 82.0051 17.6502C81.9367 17.8133 82.1946 18.1291 82.1577 18.0291C82.8891 17.4608 83.2785 16.5084 84.1151 15.3613L84.1414 15.6349C84.697 15.2559 85.2245 14.8374 85.72 14.3826C85.72 14.109 85.962 13.8985 85.6042 13.8143C86.6935 13.6512 87.2249 12.9777 87.709 12.2778C87.9379 11.9256 88.2043 11.5992 88.5035 11.3044C88.8231 11.0158 89.2235 10.8321 89.6507 10.7782C89.5033 10.8992 89.4139 11.2097 89.5297 11.1149L90.4715 10.1152C90.161 9.89418 90.1927 10.052 89.7927 10.0047C89.811 9.83677 89.8622 9.6741 89.9435 9.52602C90.0248 9.37794 90.1344 9.24735 90.2663 9.14174C89.9295 9.72054 90.6294 9.59952 90.9556 9.59952C90.8556 9.53638 90.8504 9.38378 90.7662 9.30485C91.7133 9.38378 90.4136 8.64185 91.4713 8.41559L91.5397 8.59976C91.7817 8.31036 91.908 7.91045 92.2658 7.72628C92.6447 7.97359 92.0606 8.1104 92.2658 8.40507C92.6973 8.0683 92.6973 7.12116 93.3445 7.17378C93.2182 7.41057 92.9446 7.60526 92.8183 7.83678C92.9987 7.88152 93.1869 7.88537 93.3689 7.84804C93.551 7.81072 93.7225 7.73316 93.8707 7.62105H93.8339C94.1233 7.50002 94.4284 7.39479 94.7336 7.30007H94.4548C94.4548 6.01617 95.5071 6.39502 95.9544 5.28476C95.5335 6.33714 96.0281 5.70571 96.2175 6.14771C96.4859 6.14771 96.8647 6.07931 96.8489 6.24769C96.9331 5.96881 97.1225 5.93723 97.3278 5.87935C97.4575 5.85304 97.5765 5.78911 97.6701 5.69553C97.7637 5.60195 97.8276 5.48286 97.854 5.35316C97.9539 5.47945 98.2749 5.14795 98.3801 5.53733C98.8169 5.16374 98.1329 5.36369 98.0802 5.169C98.3381 4.73752 98.8695 4.64281 99.4273 4.49021C99.7136 4.42356 99.991 4.32288 100.253 4.19029C100.548 4.06379 100.801 3.85791 100.985 3.59569C101.853 2.88533 101.827 2.32757 102.669 1.66983C103.074 1.75929 102.621 2.30127 102.621 2.30127C103.132 2.2963 103.624 2.10978 104.01 1.77508C103.963 1.93293 104.105 2.0066 104.31 2.11184C104.689 1.9382 104.379 1.49093 104.973 1.5225C104.954 1.77104 104.893 2.01465 104.794 2.24339C105.2 1.94346 105.563 1.51198 105.994 1.19101C106.205 1.40148 105.836 1.68036 105.726 1.90662C105.973 1.75403 106.299 1.56986 106.568 1.38044C106.836 1.19101 107.062 1.00158 107.094 0.770053L106.694 0.722698C106.889 0.649031 106.904 1.04367 106.778 1.15944C106.736 1.22875 106.675 1.28505 106.603 1.32214C106.531 1.35924 106.449 1.3757 106.368 1.36972C106.287 1.36374 106.21 1.33555 106.144 1.28824C106.078 1.24093 106.026 1.17634 105.994 1.10156L106.305 0.885815C105.673 0.154411 104.968 1.51724 104.273 1.71193L104.337 0.991052L103.81 1.75929C103.6 1.65405 103.363 1.34886 103.674 1.13313C103.053 1.0121 103.316 1.50671 102.753 1.33307C102.684 1.3015 102.695 1.26467 102.753 1.22258L102.353 1.61196C102.395 1.44358 102.095 1.22258 102.427 1.17522C101.416 1.21205 101.237 2.22759 100.716 1.93293L100.769 1.86453C99.6746 2.60119 100.853 2.35915 100.243 3.2642C99.8693 2.99058 99.501 2.738 99.1326 2.48017L99.2326 2.96952C99.1063 3.01688 98.8589 3.1116 98.8169 2.91691C98.5222 3.4431 98.9853 3.06424 98.8695 3.47467C98.1013 3.39048 97.4119 4.49021 96.912 3.8851C96.8857 4.31131 97.5908 3.843 97.112 4.41129C96.8226 4.09557 96.6648 4.22186 96.4911 4.41129C96.3175 4.60071 96.1491 4.90064 95.8018 4.89538C95.7387 4.43233 96.328 4.33236 95.6334 4.31658C95.7019 5.12165 94.581 4.79014 94.218 5.17426C94.36 5.42157 94.1601 5.61626 93.8497 5.82148L93.3235 6.15297C93.1448 6.27817 92.9807 6.42289 92.8341 6.58445C92.7657 6.38976 91.3713 7.23166 90.6083 7.5158L90.5715 7.42635C90.614 7.55493 90.6161 7.69345 90.5775 7.82327C90.539 7.95308 90.4616 8.06798 90.3557 8.1525C90.1611 8.38402 89.8927 8.59975 89.7033 8.83128C89.6121 8.72287 89.5587 8.58775 89.5511 8.44631C89.5435 8.30487 89.5822 8.1648 89.6612 8.04726L89.2297 8.39455C89.2303 8.52319 89.2039 8.65053 89.1522 8.76835C89.1006 8.88616 89.0248 8.99184 88.9298 9.07859L88.7719 8.65237C88.2141 9.14173 87.9195 9.95732 87.025 10.352C87.2513 10.694 88.3089 10.7203 87.7459 11.578C87.5775 11.4359 87.3091 11.1728 87.4406 10.936C87.3985 11.015 87.3354 11.2728 87.146 11.3149L87.2039 10.7887C86.7777 10.9518 87.2355 11.1728 86.9566 11.3675C86.7619 11.1307 86.6251 11.3675 86.4988 11.1518C86.5462 11.0676 86.804 11.0518 86.825 10.8676C86.521 11.0903 86.1489 11.2001 85.7727 11.1781C85.8171 11.2032 85.8554 11.2378 85.885 11.2794C85.9145 11.3211 85.9345 11.3687 85.9436 11.4189C85.9526 11.4692 85.9505 11.5208 85.9373 11.5701C85.9242 11.6194 85.9002 11.6652 85.8673 11.7043C85.3411 12.2305 85.4306 11.5938 84.9991 11.7569C84.9991 12.0358 84.5098 12.1831 84.8202 12.5304C84.6571 12.6725 84.4835 12.5304 84.3362 12.5304C84.2046 12.9461 83.1048 13.809 83.7573 13.8669L83.8468 13.8248C83.8468 13.8248 83.8467 13.8564 83.8152 13.8827C83.5037 14.4458 83.0502 14.9175 82.4997 15.2508C81.9655 15.5944 81.4925 16.0248 81.1001 16.5242L80.9895 16.4189C80.6159 17.0714 79.9372 17.6713 79.8372 18.2817C79.6951 18.4448 79.311 18.4763 79.2163 18.2817C78.9321 18.8078 79.0216 18.9446 78.2954 19.3814C78.4638 18.7763 77.985 19.3814 78.527 18.8184C77.9482 19.2762 77.6483 19.2393 77.4746 20.1023C77.3536 19.6445 76.7222 20.1865 76.6011 20.539L77.1273 20.3285C76.928 20.6295 76.695 20.9066 76.4328 21.1547L76.1486 20.6705C74.7121 21.4388 75.2699 23.4278 73.7544 23.6751C73.8018 24.2013 74.449 23.1857 74.5753 23.733C74.1017 24.2329 73.0704 24.3381 72.9389 24.5117C72.1338 25.0853 73.0125 25.6694 72.2601 26.3324C72.4863 26.3324 72.9547 26.5481 72.6705 27.2427C72.218 27.7689 71.5445 27.4584 71.676 27.0217C71.7602 26.8796 71.8549 26.848 71.9023 26.8901C71.976 26.6744 72.0812 26.3902 71.7602 26.4902L71.8602 26.6744C71.5076 26.8322 70.9657 27.611 70.8499 27.2532C70.6921 27.7794 70.9709 27.611 71.2708 27.3584C70.5394 27.9162 70.4553 28.4687 69.7817 29.1001C69.9501 29.0422 70.208 29.058 70.1238 29.1738C69.1819 30.1367 70.0817 29.8631 69.6449 30.6471C69.1187 30.9049 69.1871 30.1209 68.8714 30.9891C68.3979 31.3364 68.3926 30.8102 68.3926 30.5419C68.2242 31.4259 67.3402 31.6784 67.0087 32.0468L67.1192 31.5943C67.0574 31.8202 66.9539 32.0326 66.814 32.2204H67.2613C67.0666 32.3993 66.9508 32.5782 66.8193 32.4888C66.8824 32.8466 67.4507 32.6677 67.4454 33.2886C67.1034 33.4675 67.0508 34.262 66.572 34.0884C67.2981 33.2886 66.0878 33.9148 66.5141 33.1149C66.449 33.3216 66.3246 33.5046 66.1563 33.6411C66.0879 33.6411 66.0879 33.5517 66.1037 33.478C65.1671 34.0989 66.3141 34.1778 65.73 35.0566C65.5617 34.7935 65.1513 34.9829 65.1092 35.1618C65.3407 34.7987 65.6354 35.2355 65.5827 35.688C65.0566 36.1458 65.3302 36.3984 65.1197 36.6878L65.4196 36.3984C65.588 36.6615 65.3775 36.9246 65.1986 37.3771C64.9934 37.2982 65.2986 36.9351 65.1302 37.0298C65.267 37.7296 64.0778 37.7717 63.9778 38.5821C63.6411 38.7767 63.5095 38.34 63.2464 38.5294C63.1359 39.4292 62.4519 39.103 62.273 40.008C62.7203 39.9765 62.6624 39.8975 62.6834 40.6132C62.8308 40.1501 63.0044 39.7028 63.1728 39.2451V40.2974C63.3938 39.9344 63.4306 39.3976 63.6148 39.2082C63.6569 39.7344 63.6148 39.6555 63.9778 39.6344C63.1886 39.8554 63.6674 40.7973 63.0097 41.213L62.2099 40.7342C61.3522 41.434 61.7152 42.5443 60.9049 43.6177L61.247 43.3178C61.489 43.6493 60.9102 44.0702 60.847 44.5175C60.5892 44.3386 60.3629 44.5175 60.1051 44.6017C60.3208 44.6911 59.6262 45.4594 60.1419 45.854L59.5158 46.2066C58.8949 47.1116 59.7789 47.6957 59.2474 48.5797C59.0685 48.1534 58.6686 48.4902 58.7475 47.7641C58.5897 48.0693 58.416 48.3324 58.6107 48.4271C58.3529 48.5376 58.6107 49.4794 58.2108 49.6531C58.2792 49.8425 58.5633 50.0109 58.3844 50.3582C58.3577 50.358 58.3313 50.3523 58.3069 50.3414C58.2824 50.3306 58.2604 50.3148 58.2424 50.295C58.3844 50.3582 58.195 50.9317 58.6475 50.7581C57.9793 51.0475 57.7319 51.7526 57.5057 52.4419C57.2794 53.1312 57.0584 53.7995 56.5217 54.1047C56.3849 54.8571 56.1902 55.7516 55.9955 56.4094C55.9166 56.341 55.8482 56.362 55.9166 56.2515C55.3431 57.0671 56.6059 57.0671 56.0061 57.9985C55.3746 58.3931 55.8903 57.3776 55.6167 57.6564C54.5643 57.5249 55.4062 58.9456 54.638 59.5034C54.638 59.4402 54.638 59.3771 54.638 59.3139C54.1644 59.7823 54.7275 60.7452 54.4644 61.6134C54.4426 61.5976 54.4178 61.5866 54.3915 61.5812C54.3651 61.5757 54.338 61.576 54.3117 61.5818C54.6695 62.2869 54.6959 63.4761 54.7117 64.3496C54.3538 64.0286 54.5591 63.9286 54.1276 64.0391C54.1276 64.4338 54.7959 64.0391 54.7959 64.7968C54.538 65.0178 54.2696 65.5545 53.854 65.5861C53.8575 65.3378 53.8769 65.09 53.9118 64.8442C53.2804 65.1599 53.8329 65.8124 53.7066 66.1912L53.4646 66.1176C53.4646 67.2752 54.0539 67.3226 53.9908 68.538L54.1802 68.417C54.7958 69.0853 53.8382 68.9695 54.2959 69.6325L53.6751 69.8377C53.754 70.0587 53.8961 70.4429 54.0539 70.8901C54.2275 71.302 54.3768 71.7237 54.5012 72.153C54.2338 71.9022 54.0176 71.602 53.8645 71.269C53.6803 70.9217 53.5698 70.5481 53.4277 70.2587C53.4228 70.576 53.4474 70.8931 53.5014 71.2058C53.5344 71.4934 53.6622 71.7618 53.8645 71.9688C53.7908 71.7952 53.6171 71.5847 53.6961 71.4005C54.2477 71.9408 54.5732 72.6707 54.6064 73.4421C54.0013 73.4421 53.954 74.0157 54.0802 74.6839C54.2065 75.3522 54.2907 76.1099 53.8908 76.5309C54.0591 76.8928 54.2033 77.2654 54.3223 77.6464C54.4292 78.0341 54.5135 78.4276 54.5748 78.8251C54.6432 79.2302 54.6906 79.6512 54.7853 80.0827C54.8895 80.561 55.0539 81.0243 55.2746 81.4613C55.5483 80.9351 55.6167 81.0719 55.7167 81.2666C55.8167 81.4613 55.9798 81.7349 56.3744 81.4455C56.6533 81.8191 56.748 81.9717 56.7217 82.0453C56.847 82.5978 57.0736 83.1223 57.3899 83.5923C57.5478 84.0817 56.8216 83.4082 56.7217 83.5923C57.1952 84.0712 57.2795 84.2185 57.2795 84.3764C57.2795 84.5342 57.2163 84.6763 57.5846 85.0288C57.5846 84.6289 58.2318 84.8552 58.9106 85.192C58.6162 84.9492 58.3449 84.6797 58.1003 84.3869C58.6652 84.4348 59.1973 84.6721 59.6104 85.0604C59.8167 85.2572 60.076 85.3895 60.3565 85.4409C60.637 85.4923 60.9263 85.4607 61.189 85.3498C61.0154 85.4603 60.826 85.5498 60.6313 85.6497C61.3295 85.6015 62.0217 85.4888 62.6992 85.313C63.0399 85.24 63.3611 85.0953 63.6415 84.8884C63.9218 84.6815 64.1549 84.4173 64.3251 84.1133C64.4988 84.1606 64.7987 84.3132 64.4935 84.5237C64.6093 84.4816 64.7303 84.4342 64.8461 84.3816L65.1723 84.1712C65.388 84.0238 65.5985 83.8607 65.8037 83.6923C66.1884 83.3273 66.5405 82.9294 66.8561 82.5031C67.3007 81.7402 67.817 81.0214 68.3979 80.3563L68.5399 80.5931C68.6452 80.2458 68.4189 79.8616 68.824 79.5775C68.903 79.6406 68.9767 79.8038 69.0609 79.6617C69.0109 79.1941 69.0872 78.7217 69.2818 78.2936L69.4029 78.7409C69.6043 78.3887 69.728 77.9976 69.7659 77.5938C69.8072 77.2423 69.7876 76.8863 69.7081 76.5414C69.6081 75.8837 69.345 75.2943 69.2976 74.605C69.9869 74.6366 70.2132 73.2474 70.1922 72.5371H70.2921C70.2546 72.0477 70.1428 71.5669 69.9606 71.1111C69.8078 70.6893 69.6065 70.2867 69.3608 69.9114C69.1346 69.5423 68.8813 69.1906 68.6031 68.859C68.3505 68.5012 68.0348 68.175 67.7348 67.8066C67.7326 67.4098 67.6236 67.0208 67.4191 66.6806C67.1877 66.2448 66.9069 65.8369 66.5825 65.4651C66.2562 65.0547 65.8668 64.6758 65.5301 64.2864C65.1933 63.897 64.8198 63.5287 64.5198 63.1814C64.6566 63.4498 64.1462 63.5761 63.8568 63.4445C63.6148 63.0657 62.6624 63.1867 63.0728 62.6921L63.1886 62.7868C63.2027 62.6264 63.1736 62.4651 63.1042 62.3198C63.0347 62.1745 62.9276 62.0505 62.7939 61.9607C62.5256 61.7502 62.1783 61.5871 61.8994 61.4029L61.3732 62.0764C60.9312 61.1398 59.863 60.7083 58.8948 60.44C57.9266 60.1716 57.0374 59.9822 56.7901 59.3192C56.3376 59.3771 55.8693 59.2245 55.4273 59.3192L55.5851 58.8983C54.6736 58.4614 53.7044 58.1567 52.7068 57.9932L53.0541 57.7564C52.3175 57.5354 51.7965 58.7562 51.123 58.6246L51.0757 57.9301C49.797 57.6407 48.6236 56.7514 47.2187 57.1039C47.2608 57.0145 47.3345 56.8303 47.5502 56.8461C46.9451 56.7093 45.277 55.9253 45.3349 56.8777C45.4244 56.2883 44.0037 56.5935 43.2618 56.7356L43.4459 56.3199C42.7619 56.7777 42.725 56.9145 41.8673 56.9461C41.6779 56.8619 41.7463 56.5725 41.9883 56.7198C41.3727 56.4041 41.4253 57.0618 40.6676 56.7198L40.9991 56.483C40.3361 56.3568 40.3677 56.5146 39.9467 56.7882C39.5047 56.9092 38.6944 56.5041 38.6365 56.1042C38.5502 56.2591 38.4129 56.3795 38.2479 56.4447C38.0829 56.5099 37.9005 56.516 37.7315 56.462C37.6947 56.3094 37.8473 56.2305 37.9262 56.1936C36.8317 55.7779 36.2055 56.5199 35.4741 56.02C35.4781 55.9689 35.4702 55.9177 35.451 55.8702C35.4318 55.8227 35.4019 55.7804 35.3636 55.7464C35.8846 55.7763 36.4022 55.8502 36.9107 55.9674C36.9528 55.5675 36.2318 55.4412 36.8633 54.915C36.5581 55.036 36.1372 55.236 35.7109 55.3728C35.3304 55.5403 34.9061 55.5809 34.5007 55.4885C34.4643 55.4446 34.4358 55.3948 34.4165 55.3412L34.4954 55.2991C34.3458 55.2537 34.1847 55.265 34.0429 55.3307C33.8582 55.2504 33.6635 55.1956 33.4641 55.1676C33.401 54.8308 32.638 54.9203 32.2749 54.8887C32.2749 55.3307 31.8119 55.2412 32.2328 55.6253C32.1802 55.5938 32.3065 55.5675 32.5485 55.5727C32.6028 55.5692 32.6561 55.5568 32.7064 55.5359L32.6748 55.5727L33.5798 55.6096C33.2747 55.8148 32.9695 55.9832 32.5853 55.7043C32.3801 55.9726 32.1591 56.262 32.0591 56.3936C31.6014 55.7516 30.6595 55.378 30.5437 54.9887C29.4229 55.1728 27.9128 55.0781 27.2182 55.9042C26.9025 56.0095 26.8604 55.6622 26.7446 55.5306C26.9235 55.4464 27.1393 55.4622 27.2393 55.3465C26.6079 55.5464 25.3765 55.4096 25.2292 56.0042C24.4399 55.7569 25.6712 55.478 24.582 55.578L24.7294 55.3938C23.677 54.9571 22.7772 55.3202 21.8985 55.7148C21.0197 56.1094 20.1146 56.4357 18.8939 55.9253C19.0622 55.9832 19.1465 56.0095 19.1833 56.1042C17.8057 56.0111 16.4218 56.1157 15.0738 56.4146C14.3955 56.5445 13.7103 56.6359 13.0216 56.6882C12.3386 56.761 11.649 56.7468 10.9695 56.6462C10.1907 56.5883 10.1644 56.9671 9.75399 57.3144L9.51719 56.8671L8.82789 57.5459C8.3017 57.8406 7.77551 57.6354 7.24932 57.4828C6.95706 57.3615 6.63708 57.3228 6.32434 57.3711C6.0116 57.4193 5.71814 57.5526 5.47606 57.7564L5.71812 58.0353C5.19193 58.0774 4.18162 58.5615 4.18689 58.1668C4.15005 58.2352 4.09218 58.5299 3.86592 58.4036L3.66596 58.1405C3.28711 58.3563 2.90824 58.5931 2.53991 58.8298C1.55593 58.8825 2.46625 57.8301 1.06658 58.1195C0.571966 58.3352 -0.217319 59.1719 0.014205 59.2929C0.224681 59.2508 0.577245 59.2929 0.656173 59.5507L0.224694 59.7928C0.319408 60.5242 0.161551 61.3345 1.40862 61.566L2.08213 60.9399L2.41363 61.224L1.76643 61.4029C2.21369 61.6397 2.38205 61.2977 2.59778 61.0346C2.64173 61.1113 2.70155 61.1777 2.77323 61.2294C2.84492 61.2812 2.92685 61.317 3.01349 61.3345L3.62386 60.4663C3.78172 60.7294 3.40286 61.0977 3.95536 61.1451C4.24477 60.7504 3.466 60.5873 4.0185 60.2558C4.47103 60.5031 4.41843 60.782 4.79729 60.4189C4.89726 60.5926 4.82883 60.7294 4.67624 60.8452C5.01826 60.5452 5.69181 60.5347 5.81809 60.1085C6.2864 60.4295 7.12829 59.7349 7.21775 60.4295C7.4566 60.0917 7.7897 59.8318 8.17542 59.6823C7.64922 60.6189 9.5435 59.4876 9.51193 60.4031C9.88026 59.5612 11.2326 59.8086 12.0429 59.2666C12.0061 59.3297 11.9272 59.4613 11.843 59.435C12.1943 59.4612 12.5365 59.5597 12.848 59.7244C12.848 59.0982 13.5794 58.8719 13.953 58.4457C14.6318 58.9719 13.6689 59.2087 13.953 59.7559C13.8583 59.2613 14.9422 59.1403 14.6896 58.7509C15.2158 59.0614 15.1106 58.8825 15.4 59.3666C15.4 58.5878 15.8157 59.1877 16.1524 58.672C16.8628 58.993 16.3945 59.3771 17.1049 59.0824C17.4837 59.2771 16.8523 59.6033 16.8523 59.6033ZM35.8846 58.3036C35.6744 58.2615 35.4618 58.2333 35.2479 58.2195C35.2058 58.0669 35.2794 57.909 35.4268 57.9353C35.3373 58.0248 35.6793 58.1405 35.8846 58.3036ZM32.9484 54.9834C33.1958 54.9413 33.2694 55.036 33.2957 55.1255C33.18 55.1255 33.0484 55.1255 32.8695 55.1255C32.8609 55.1441 32.8503 55.1618 32.8379 55.1781C32.863 55.1072 32.9005 55.0413 32.9484 54.9834Z" fill="#F3AC5D"/>
<path d="M32.4828 55.5328C32.4496 55.5357 32.4161 55.5357 32.3828 55.5328C32.4233 55.5755 32.4693 55.6127 32.5196 55.6433L32.6091 55.5117L32.4828 55.5328Z" fill="#F3AC5D"/>
<path d="M83.7269 13.8379H83.6953C83.7246 13.8301 83.7555 13.8301 83.7848 13.8379C83.7848 13.8379 83.748 13.8379 83.7269 13.8379Z" fill="#F3AC5D"/>
<path d="M55.6119 63.1521L55.6434 63.0469L55.4961 63.0995L55.6119 63.1521Z" fill="#F3AC5D"/>
<path d="M90.9688 9.58594C91.0181 9.60361 91.072 9.60361 91.1213 9.58594C91.1213 9.58594 91.0424 9.58594 90.9688 9.58594Z" fill="#F3AC5D"/>
<path d="M93.8867 7.6239C94.0551 7.57654 94.213 7.51866 94.4129 7.47656C94.2318 7.50224 94.0548 7.55178 93.8867 7.6239Z" fill="#F3AC5D"/>
<path d="M96.2753 6.35484C96.2668 6.28783 96.2491 6.22231 96.2227 6.16016L96.2753 6.35484Z" fill="#F3AC5D"/>
<path d="M67.7098 38.0859C67.6921 38.117 67.6797 38.1508 67.673 38.1859C67.6151 38.4385 67.673 38.2806 67.7098 38.0859Z" fill="#F3AC5D"/>
<path d="M74.1311 26.8359C74.1196 26.9894 74.0914 27.1412 74.0469 27.2885C74.2153 27.1253 74.331 26.9938 74.1311 26.8359Z" fill="#F3AC5D"/>
<path d="M73.6836 27.7732C73.8597 27.6616 73.9889 27.4894 74.0466 27.2891C73.8871 27.4176 73.7623 27.584 73.6836 27.7732Z" fill="#F3AC5D"/>
<path d="M106.902 1.71429H107.034C107.029 1.68994 107.029 1.66498 107.034 1.64062L106.902 1.71429Z" fill="#F3AC5D"/>
<path d="M107.023 1.62462L107.15 1.53516C107.087 1.5562 107.029 1.572 107.023 1.62462Z" fill="#F3AC5D"/>
<path d="M107.406 1.35156L107.148 1.53572C107.248 1.50941 107.375 1.48837 107.406 1.35156Z" fill="#F3AC5D"/>
<path d="M103.496 2.70312V2.86625C103.512 2.81309 103.512 2.75628 103.496 2.70312Z" fill="#F3AC5D"/>
<path d="M102.527 3.1829C102.775 3.11449 103.248 3.23552 103.532 2.99873V2.86719C103.453 3.15133 102.643 2.83561 102.527 3.1829Z" fill="#F3AC5D"/>
<path d="M97.5312 3.41516L98.4205 3.08366C98.1942 3.00999 97.8943 2.91002 98.2574 2.66797C96.9682 2.76794 98.652 2.88897 97.5312 3.41516Z" fill="#F3AC5D"/>
<path d="M94.8702 4.64503C95.2649 4.31354 94.7387 4.43982 94.7124 4.33984C94.5177 4.64503 94.4703 4.7187 94.8702 4.64503Z" fill="#F3AC5D"/>
<path d="M78.9108 18.3052L78.6425 18C78.4478 18.3315 78.774 18.1052 78.9108 18.3052Z" fill="#F3AC5D"/>
<path d="M77.9219 22.6796L78.3481 22.5533L78.1745 22.1797L77.9219 22.6796Z" fill="#F3AC5D"/>
<path d="M74.1755 22.6957L74.2386 22.5273C74.1387 22.7273 74.0387 22.922 73.9492 23.1272C74.0439 22.9799 74.1176 22.8378 74.1755 22.6957Z" fill="#F3AC5D"/>
<path d="M56.3281 53.1553L56.8543 53.2132C56.8491 52.9396 56.3492 52.687 56.3281 53.1553Z" fill="#F3AC5D"/>
<path d="M53.654 68.3789C53.5848 68.4253 53.5257 68.4852 53.4801 68.5549C53.4345 68.6246 53.4034 68.7028 53.3887 68.7848C53.374 68.8668 53.3759 68.9509 53.3943 69.0321C53.4128 69.1134 53.4474 69.1901 53.4961 69.2577C53.5382 68.9051 53.7276 68.5578 53.654 68.3789Z" fill="#F3AC5D"/>
<path d="M60.8749 61.1162L61.2432 61.1268L60.6328 60.9531L60.8749 61.1162Z" fill="#F3AC5D"/>
</g>
<defs>
<clipPath id="clip0_1642_30098">
<rect width="110" height="85.6058" fill="white"/>
</clipPath>
</defs>
</svg>
