<svg width="73" height="22" viewBox="0 0 73 22" fill="none" xmlns="http://www.w3.org/2000/svg">
<g clip-path="url(#clip0_1642_43931)">
<rect width="73" height="21" transform="translate(0 0.335938)" fill="white"/>
<path d="M35.9147 2.72266V6.47992C35.9354 6.95176 35.853 7.42251 35.6728 7.86119C35.4927 8.29987 35.219 8.6966 34.8697 9.02525C34.5204 9.3539 34.1034 9.60708 33.6461 9.76803C33.1888 9.92903 32.7016 9.99422 32.2165 9.95935C31.2819 9.92925 30.3962 9.54662 29.7475 8.89268C29.0988 8.23875 28.7381 7.36507 28.7422 6.45717V2.72266H29.42C29.7124 2.72263 29.9928 2.83535 30.1995 3.03603C30.4063 3.23671 30.5225 3.50892 30.5226 3.79278V6.70567C30.5226 7.80685 31.1413 8.40754 32.2778 8.40754C33.3349 8.40754 34.1348 7.80685 34.1348 6.70567V3.79279C34.1348 3.65226 34.1633 3.5131 34.2187 3.38326C34.274 3.25342 34.3552 3.13545 34.4576 3.03608C34.5599 2.9367 34.6814 2.85788 34.8152 2.80411C34.9489 2.75033 35.0922 2.72266 35.237 2.72266L35.9147 2.72266Z" fill="#2B2377"/>
<path d="M46.519 11.9797H45.5389C45.3532 11.9632 45.1671 12.0123 45.0155 12.1182C44.8639 12.224 44.7566 12.3794 44.7135 12.5559L41.9012 18.7925L39.0375 12.5559C38.9944 12.3794 38.8872 12.224 38.7355 12.1182C38.5839 12.0123 38.398 11.9632 38.212 11.9797H37.2319C37.1497 11.9837 37.0692 12.0041 36.9953 12.0395C36.9215 12.075 36.856 12.1247 36.8028 12.1858C36.7495 12.2468 36.7098 12.3178 36.686 12.3943C36.6621 12.4708 36.6547 12.5513 36.6641 12.6307V21.0718H37.5672C37.6827 21.0727 37.7972 21.0514 37.9041 21.0089C38.0109 20.9664 38.1081 20.9037 38.1897 20.8244C38.2714 20.7451 38.336 20.6508 38.3797 20.5471C38.4234 20.4433 38.4455 20.3321 38.4445 20.22V15.2312L40.3533 19.569C40.4747 19.8647 40.6847 20.1182 40.956 20.2968C41.2274 20.4754 41.5477 20.5708 41.8755 20.5708C42.2034 20.5708 42.5237 20.4754 42.795 20.2968C43.0664 20.1182 43.2763 19.8647 43.3977 19.569L45.3068 15.3191V20.22C45.3059 20.3321 45.328 20.4433 45.3717 20.547C45.4154 20.6508 45.4798 20.7451 45.5614 20.8244C45.643 20.9037 45.7403 20.9663 45.8471 21.0088C45.9539 21.0514 46.0683 21.0727 46.1837 21.0718H47.0867V12.6307C47.0962 12.5513 47.089 12.4708 47.0651 12.3943C47.0412 12.3177 47.0016 12.2468 46.9484 12.1858C46.8952 12.1247 46.8294 12.0749 46.7555 12.0395C46.6821 12.0041 46.6014 11.9837 46.519 11.9797Z" fill="#2B2377"/>
<path d="M53.998 11.9297C53.8231 11.9327 53.6524 11.9806 53.5023 12.0685C53.3527 12.1566 53.2301 12.2815 53.1463 12.4306L51.6705 15.1256C51.5944 15.2648 51.4804 15.3811 51.3411 15.4623C51.2023 15.5434 51.0428 15.5863 50.8806 15.5863H50.2565V12.9596C50.2565 12.6864 50.1447 12.4245 49.946 12.2313C49.7469 12.0382 49.4769 11.9297 49.1957 11.9297H48.4766V21.0717H49.1957C49.4769 21.0717 49.7469 20.9632 49.946 20.77C50.1447 20.5769 50.2565 20.3149 50.2565 20.0418V17.3149H51.8819C52.082 17.3149 52.2798 17.3531 52.4645 17.4273C52.6493 17.5016 52.8169 17.6104 52.9584 17.7477C53.0994 17.8849 53.2116 18.0479 53.2883 18.2271C53.3649 18.4065 53.4041 18.5987 53.4041 18.7928V19.7194C53.4041 20.078 53.551 20.422 53.8119 20.6756C54.0732 20.9292 54.4274 21.0717 54.7969 21.0717H55.184V18.7928C55.184 17.293 54.4901 16.2426 53.2761 15.8086L55.5193 11.9297H53.998Z" fill="#2B2377"/>
<path d="M32.3265 3.04925C32.4692 3.05062 32.6108 3.02433 32.7429 2.97194C32.875 2.91955 32.995 2.8421 33.0959 2.74412C33.1969 2.64614 33.2766 2.52961 33.3306 2.40133C33.3846 2.27306 33.4116 2.13562 33.4102 1.99706C33.3997 1.7213 33.2822 1.4596 33.0812 1.26451C32.8801 1.06942 32.6105 0.955393 32.3265 0.945312C32.0369 0.953686 31.7608 1.06574 31.5513 1.25991C31.3417 1.45408 31.2135 1.71664 31.1914 1.99706C31.2001 2.28212 31.3241 2.55236 31.5366 2.74928C31.749 2.94621 32.0328 3.05398 32.3265 3.04925Z" fill="#2B2377"/>
<path d="M28.7422 15.8619V17.3647C28.7422 19.6441 30.2126 21.0717 32.3021 21.0717H35.3983V20.1954C35.3958 19.9702 35.3026 19.7549 35.1386 19.5957C34.9746 19.4365 34.7528 19.346 34.5209 19.3436H32.3021C31.2445 19.3436 30.4965 18.5171 30.4965 17.2147H34.0564C34.2883 17.2124 34.51 17.1219 34.6741 16.9626C34.8381 16.8034 34.9313 16.5881 34.9337 16.3629V15.7119H30.4965C30.4965 14.5595 31.2445 13.6578 32.3021 13.6578H34.753C34.9835 13.6513 35.2027 13.5595 35.3658 13.4013C35.5288 13.243 35.6235 13.0302 35.6303 12.8064V11.9297H32.3021C30.2126 11.9297 28.7422 13.3572 28.7422 15.8619Z" fill="#2B2377"/>
<path d="M70.7944 13.0101V17.942L67.6031 12.6539C67.5639 12.5888 67.5274 12.5218 67.4909 12.4549C67.4355 12.3033 67.3296 12.1741 67.1895 12.0881C67.0493 12.002 66.8835 11.9641 66.7186 11.9802H65.7123C65.6303 11.9842 65.5497 12.0046 65.4758 12.04C65.4019 12.0754 65.3365 12.1252 65.2834 12.1862C65.2302 12.2472 65.1901 12.3182 65.1666 12.3948C65.1428 12.4713 65.1351 12.5518 65.1446 12.6312V21.0719H65.8642C66.1458 21.0719 66.4153 20.9634 66.6145 20.7702C66.8132 20.5771 66.925 20.3152 66.925 20.042V15.0204L70.2009 20.4961C70.3816 20.8466 70.5105 21.0719 71.0265 21.0719H72.007C72.0895 21.0679 72.1701 21.0476 72.2436 21.0121C72.3175 20.9766 72.3833 20.9269 72.4365 20.8659C72.4896 20.8048 72.5293 20.7338 72.5532 20.6573C72.5766 20.5808 72.5843 20.5003 72.5743 20.4209V11.9802H71.8552C71.574 11.9802 71.3041 12.0887 71.1053 12.2819C70.9062 12.475 70.7944 12.7369 70.7944 13.0101Z" fill="#2B2377"/>
<path d="M71.5436 0.570312C71.4381 0.575744 71.3349 0.601572 71.2399 0.64628C71.1452 0.690986 71.0601 0.753672 70.9907 0.830656C70.9208 0.907639 70.8676 0.99737 70.8338 1.09458C70.8005 1.1918 70.7874 1.29453 70.7951 1.39675L70.796 8.08524C70.7883 8.18744 70.8014 8.29012 70.8347 8.38733C70.8685 8.4845 70.9217 8.57423 70.9911 8.65123C71.061 8.72819 71.1457 8.79088 71.2408 8.83559C71.3354 8.88035 71.439 8.90621 71.544 8.91168H72.5764V0.570312H71.5436Z" fill="#2B2377"/>
<path d="M60.1438 11.8066C59.6729 11.7911 59.2038 11.87 58.7658 12.0385C58.3278 12.2069 57.9304 12.4613 57.5983 12.7857C57.2662 13.11 57.0062 13.4975 56.8354 13.9237C56.6641 14.3499 56.5857 14.8058 56.6042 15.2629V21.0737H57.3234C57.605 21.0737 57.8745 20.9652 58.0737 20.7721C58.2724 20.579 58.3841 20.317 58.3841 20.0439V15.2629C58.3738 15.0357 58.4116 14.809 58.4954 14.5967C58.5797 14.3844 58.7077 14.1912 58.8717 14.0291C59.0357 13.8671 59.2327 13.7395 59.4499 13.6545C59.6671 13.5696 59.9 13.5289 60.1339 13.5352C60.3727 13.5353 60.6093 13.5813 60.8301 13.6705C61.0504 13.7597 61.2505 13.8904 61.4191 14.0551C61.5871 14.2197 61.7205 14.4151 61.8106 14.6299C61.9008 14.8447 61.9463 15.0747 61.9445 15.3066V20.0439C61.9445 20.317 62.0562 20.579 62.2554 20.7721C62.4541 20.9652 62.724 21.0737 63.0052 21.0738H63.7244V15.3233C63.7298 14.3959 63.3558 13.5045 62.6844 12.8451C62.013 12.1856 61.0991 11.812 60.1438 11.8066Z" fill="#2B2377"/>
<path d="M69.6108 6.43154C69.6108 8.48516 68.1656 9.86285 65.9982 9.86285H65.4863C65.3466 9.86285 65.2087 9.83616 65.0798 9.78436C64.9509 9.73252 64.8342 9.65661 64.7355 9.56089C64.6368 9.46516 64.5589 9.35154 64.5057 9.2265C64.4521 9.10147 64.4246 8.96746 64.4246 8.8321V8.31016H65.9982C66.2478 8.3197 66.497 8.2777 66.7286 8.18692C66.9607 8.09613 67.1702 7.95863 67.3433 7.7835C67.5163 7.60837 67.6492 7.39959 67.733 7.17091C67.8173 6.94223 67.8502 6.69889 67.8299 6.45691C67.8299 5.30454 67.1076 4.55292 65.9982 4.55292C64.9662 4.55292 64.2957 5.30454 64.2957 6.45691C64.2957 8.63566 62.902 9.86285 60.8138 9.86285H38.2602C38.1136 9.86267 37.9685 9.83367 37.8337 9.77758C37.6989 9.72149 37.5773 9.6395 37.4761 9.53652C37.3748 9.43353 37.2961 9.31168 37.2447 9.17838C37.1933 9.04507 37.1702 8.90302 37.1769 8.76079V1.3968C37.1757 1.28792 37.197 1.17992 37.2394 1.07911C37.2818 0.978313 37.3445 0.886744 37.4238 0.809771C37.5032 0.732801 37.5975 0.671978 37.7013 0.630867C37.8052 0.589756 37.9164 0.569185 38.0286 0.57036H38.9568V8.31016H57.7433V6.78241C57.7465 6.49349 57.6311 6.2151 57.4234 6.00843C57.2152 5.80171 56.9313 5.68359 56.6339 5.67991H41.355V3.12667C41.3551 2.44977 41.632 1.80059 42.1249 1.32182C42.6178 0.843051 43.2863 0.573866 43.9835 0.573423L50.254 0.57036V1.11242C50.254 1.38313 50.1436 1.64274 49.9463 1.83416C49.7493 2.02557 49.4817 2.13311 49.2028 2.13311H44.1601C43.8884 2.13317 43.6278 2.23801 43.4356 2.42457C43.2435 2.61113 43.1355 2.86415 43.1354 3.12799V4.1233L56.8227 4.11717C57.5392 4.13559 58.2201 4.42212 58.7234 4.91682C59.2272 5.4115 59.5138 6.07607 59.5241 6.77147V8.29966L60.8134 8.31016C61.8187 8.31016 62.5153 7.73397 62.5153 6.43154C62.5153 4.37792 63.9086 3.00024 65.9977 3.00024C68.1652 3.00024 69.6103 4.37792 69.6103 6.43154" fill="#2B2377"/>
<path d="M71.5129 10.2741V10.2938C71.512 10.3237 71.517 10.3534 71.5278 10.3813C71.5386 10.4092 71.5553 10.4347 71.5765 10.4563C71.5976 10.4779 71.6233 10.4951 71.6513 10.507C71.6797 10.5188 71.7098 10.525 71.7405 10.5252H72.1474C72.2037 10.5253 72.2596 10.5361 72.3114 10.557C72.3632 10.5779 72.4106 10.6085 72.4502 10.6472C72.4903 10.6858 72.5219 10.7317 72.543 10.7821C72.5647 10.8326 72.5759 10.8867 72.5755 10.9413V11.1469H71.5436C71.4386 11.1413 71.3354 11.1154 71.2403 11.0706C71.1452 11.0258 71.0605 10.963 70.9911 10.886C70.9213 10.809 70.8685 10.7193 70.8347 10.6221C70.8014 10.5249 70.7883 10.4222 70.796 10.3201L70.7951 10.2487C70.7874 10.1465 70.8005 10.0438 70.8338 9.94666C70.8676 9.84944 70.9208 9.75971 70.9902 9.68271C71.0601 9.60571 71.1448 9.54298 71.2399 9.49818C71.3345 9.45338 71.4381 9.42743 71.5431 9.42188H72.5755V9.6275C72.5759 9.6821 72.5647 9.73622 72.543 9.78666C72.5219 9.83715 72.4903 9.883 72.4502 9.92163C72.4106 9.96026 72.3632 9.99093 72.3114 10.0118C72.2596 10.0328 72.2037 10.0436 72.1474 10.0436H71.7396C71.7094 10.0439 71.6792 10.0502 71.6508 10.062C71.6229 10.0738 71.5976 10.091 71.5765 10.1125C71.5553 10.134 71.5386 10.1594 71.5278 10.1871C71.517 10.2148 71.512 10.2445 71.5129 10.2741Z" fill="#2B2377"/>
<path d="M22.4414 13.0354C21.9945 12.606 21.4677 12.263 20.8891 12.0243C20.2887 11.7752 19.6421 11.6486 18.9893 11.6524H13.3043V12.7151C13.3043 13.0596 13.4453 13.39 13.6962 13.6336C13.947 13.8772 14.2873 14.014 14.6422 14.0141H18.9893C19.3148 14.0123 19.6373 14.0753 19.9369 14.1991C20.5236 14.4397 20.9904 14.893 21.2383 15.4626C21.3641 15.7541 21.4289 16.067 21.4289 16.3831C21.4289 16.6992 21.3641 17.0121 21.2383 17.3036C20.9908 17.8732 20.5237 18.3263 19.9369 18.5662C19.6376 18.6909 19.315 18.7542 18.9893 18.7522H9.54297V19.2557C9.54297 19.7507 9.74552 20.2254 10.106 20.5755C10.4665 20.9255 10.9555 21.1221 11.4653 21.1221H18.9893C19.642 21.1258 20.2887 20.9994 20.8891 20.7507C22.0599 20.2696 22.9918 19.3648 23.4873 18.2281C23.7398 17.6439 23.8699 17.0168 23.8699 16.3833C23.8699 15.7498 23.7398 15.1227 23.4873 14.5386C23.2414 13.977 22.8862 13.4666 22.4414 13.0354Z" fill="#0CBAB4"/>
<path d="M9.0149 11.1237H12.7627V10.6201C12.7627 10.1252 12.5602 9.65042 12.1996 9.30042C11.8391 8.95042 11.3502 8.75376 10.8404 8.75376H10.1987V5.30889C10.1971 4.99275 10.2621 4.67964 10.3897 4.38882C10.5128 4.10672 10.6906 3.85022 10.9134 3.63326C11.1363 3.41672 11.4004 3.24435 11.6911 3.12576C11.9913 3.00332 12.3136 2.94025 12.6392 2.94025C12.9648 2.94025 13.2872 3.00332 13.5873 3.12576C14.1741 3.36572 14.6409 3.81905 14.8878 4.38882C15.016 4.67948 15.0813 4.99266 15.0793 5.30889V9.8392C15.0794 10.1801 15.2188 10.507 15.4671 10.7481C15.7154 10.9891 16.0521 11.1245 16.4032 11.1246H17.5203V5.30889C17.5243 4.67519 17.394 4.04748 17.1373 3.46482C16.6425 2.32774 15.7106 1.42277 14.5395 0.942193C13.9379 0.696741 13.2918 0.570312 12.6392 0.570312C11.9866 0.570312 11.3406 0.696741 10.739 0.942193C10.1606 1.18068 9.635 1.52531 9.1911 1.95719C8.74868 2.3911 8.39531 2.90273 8.14972 3.46482C7.89309 4.04748 7.76268 4.67519 7.7667 5.30889V8.75376H4.94268C4.29006 8.75 3.64359 8.87644 3.04333 9.1252C1.8725 9.60628 0.940591 10.5111 0.445077 11.6478C0.192559 12.232 0.0625 12.8592 0.0625 13.4928C0.0625 14.1263 0.192559 14.7535 0.445077 15.3377C0.69076 15.8994 1.0459 16.4096 1.49096 16.8405C1.93797 17.2698 2.46472 17.6131 3.04333 17.852C3.64359 18.1008 4.29006 18.2272 4.94268 18.2235H10.6281V17.1612C10.6281 16.8167 10.4871 16.4863 10.2362 16.2428C9.98535 15.9992 9.64505 15.8623 9.29023 15.8623H4.94268C4.61724 15.8638 4.29489 15.8007 3.99549 15.6768C3.40873 15.4365 2.94177 14.9833 2.69411 14.4137C2.568 14.1222 2.50304 13.8092 2.50304 13.493C2.50304 13.1768 2.568 12.8638 2.69411 12.5723C2.9411 12.0024 3.40832 11.5493 3.99549 11.3101C4.29463 11.1853 4.61711 11.1218 4.94268 11.1237H9.0149Z" fill="#0CBAB4"/>
</g>
<defs>
<clipPath id="clip0_1642_43931">
<rect width="73" height="21" fill="white" transform="translate(0 0.335938)"/>
</clipPath>
</defs>
</svg>
