<svg width="1270" height="246" viewBox="0 0 1270 246" fill="none" xmlns="http://www.w3.org/2000/svg">
<g filter="url(#filter0_d_1642_29792)">
<rect x="4.5" y="110.34" width="189.333" height="111" rx="11.5" stroke="#E0E5EB" shape-rendering="crispEdges"/>
<path d="M71.1913 163.438C71.1484 159.009 74.8689 156.881 75.0363 156.78C72.9422 153.769 69.6893 153.356 68.5307 153.309C65.7628 153.03 63.1279 154.913 61.7204 154.913C60.3128 154.913 58.1457 153.347 55.8498 153.394C52.8288 153.436 50.0437 155.12 48.4859 157.78C45.3533 163.125 47.6878 171.062 50.7475 175.407C52.2451 177.53 54.0217 179.924 56.3648 179.836C58.622 179.747 59.4717 178.4 62.1924 178.4C64.9131 178.4 65.6812 179.836 68.0629 179.793C70.4875 179.747 72.0238 177.623 73.5086 175.491C75.2165 173.021 75.9246 170.636 75.9675 170.509C75.9117 170.488 71.2428 168.728 71.1913 163.438Z" fill="#211C4D"/>
<path d="M66.7152 150.43C67.9597 148.948 68.7965 146.892 68.5691 144.84C66.7796 144.912 64.6125 146.014 63.3294 147.495C62.1793 148.804 61.1709 150.898 61.4455 152.908C63.4324 153.06 65.475 151.907 66.7152 150.43ZM86.8844 167.79L84.8246 173.933H82.1768L88.9185 154.411H92.0082L98.7756 173.933H96.0378L93.9179 167.79H86.8844ZM93.39 165.819L91.4504 160.199C91.0084 158.924 90.7166 157.767 90.4205 156.636H90.3647C90.0686 157.793 89.7467 158.979 89.3648 160.17L87.4251 165.815L93.39 165.819ZM100.784 164.489C100.784 162.694 100.728 161.242 100.664 159.912H102.99L103.11 162.319H103.166C104.226 160.609 105.904 159.596 108.229 159.596C111.675 159.596 114.263 162.462 114.263 166.722C114.263 171.763 111.143 174.25 107.787 174.25C105.904 174.25 104.256 173.439 103.402 172.05H103.346V179.667H100.784V164.489ZM103.342 168.225C103.342 168.605 103.397 168.947 103.462 169.268C103.934 171.033 105.492 172.253 107.35 172.253C110.088 172.253 111.68 170.053 111.68 166.836C111.68 164.024 110.178 161.626 107.44 161.626C105.676 161.626 104.028 162.872 103.522 164.784C103.432 165.101 103.346 165.481 103.346 165.827L103.342 168.225ZM116.941 164.489C116.941 162.694 116.885 161.242 116.821 159.912H119.147L119.267 162.319H119.322C120.382 160.609 122.06 159.596 124.386 159.596C127.832 159.596 130.42 162.462 130.42 166.722C130.42 171.763 127.3 174.25 123.944 174.25C122.06 174.25 120.412 173.439 119.558 172.05H119.503V179.667H116.941V164.489ZM119.503 168.225C119.503 168.605 119.558 168.947 119.623 169.268C120.095 171.033 121.653 172.253 123.511 172.253C126.249 172.253 127.841 170.053 127.841 166.836C127.841 164.024 126.339 161.626 123.601 161.626C121.837 161.626 120.189 162.872 119.683 164.784C119.593 165.101 119.507 165.481 119.507 165.827L119.503 168.225ZM133.102 153.368H135.694V173.929H133.102V153.368ZM140.903 167.385C140.959 170.83 143.199 172.253 145.787 172.253C147.641 172.253 148.761 171.936 149.731 171.531L150.173 173.355C149.263 173.76 147.701 174.225 145.435 174.225C141.049 174.225 138.427 171.387 138.427 167.157C138.427 162.927 140.959 159.596 145.109 159.596C149.761 159.596 150.997 163.619 150.997 166.199C150.997 166.722 150.941 167.123 150.907 167.385H140.903ZM148.499 165.561C148.529 163.94 147.821 161.419 144.907 161.419C142.285 161.419 141.14 163.796 140.934 165.561H148.499Z" fill="#211C4D"/>
</g>
<g filter="url(#filter1_d_1642_29792)">
<rect x="218.832" y="110.34" width="189.333" height="111" rx="11.5" stroke="#E0E5EB" shape-rendering="crispEdges"/>
<path d="M289.798 166.294C289.798 169.4 289.23 172.071 288.093 174.306C286.957 176.531 285.399 178.245 283.42 179.448C281.45 180.641 279.211 181.238 276.701 181.238C274.182 181.238 271.933 180.641 269.954 179.448C267.984 178.245 266.431 176.526 265.295 174.292C264.159 172.057 263.591 169.391 263.591 166.294C263.591 163.188 264.159 160.523 265.295 158.297C266.431 156.062 267.984 154.348 269.954 153.155C271.933 151.953 274.182 151.351 276.701 151.351C279.211 151.351 281.45 151.953 283.42 153.155C285.399 154.348 286.957 156.062 288.093 158.297C289.23 160.523 289.798 163.188 289.798 166.294ZM285.451 166.294C285.451 163.927 285.068 161.934 284.301 160.314C283.543 158.685 282.502 157.454 281.176 156.621C279.859 155.778 278.368 155.357 276.701 155.357C275.025 155.357 273.529 155.778 272.213 156.621C270.896 157.454 269.855 158.685 269.088 160.314C268.33 161.934 267.951 163.927 267.951 166.294C267.951 168.662 268.33 170.66 269.088 172.289C269.855 173.908 270.896 175.139 272.213 175.982C273.529 176.815 275.025 177.232 276.701 177.232C278.368 177.232 279.859 176.815 281.176 175.982C282.502 175.139 283.543 173.908 284.301 172.289C285.068 170.66 285.451 168.662 285.451 166.294ZM295.27 180.84V151.749H305.64C307.903 151.749 309.778 152.161 311.265 152.985C312.751 153.809 313.864 154.935 314.603 156.365C315.341 157.786 315.711 159.386 315.711 161.167C315.711 162.956 315.337 164.566 314.588 165.996C313.85 167.417 312.732 168.543 311.236 169.377C309.749 170.201 307.879 170.613 305.625 170.613H298.495V166.891H305.228C306.658 166.891 307.818 166.645 308.708 166.152C309.598 165.65 310.251 164.969 310.668 164.107C311.085 163.245 311.293 162.265 311.293 161.167C311.293 160.068 311.085 159.093 310.668 158.24C310.251 157.388 309.593 156.721 308.694 156.238C307.803 155.755 306.629 155.513 305.171 155.513H299.659V180.84H295.27ZM320.856 180.84V151.749H331.225C333.489 151.749 335.364 152.161 336.85 152.985C338.337 153.809 339.45 154.935 340.189 156.365C340.927 157.786 341.297 159.386 341.297 161.167C341.297 162.956 340.922 164.566 340.174 165.996C339.436 167.417 338.318 168.543 336.822 169.377C335.335 170.201 333.465 170.613 331.211 170.613H324.081V166.891H330.814C332.243 166.891 333.404 166.645 334.294 166.152C335.184 165.65 335.837 164.969 336.254 164.107C336.671 163.245 336.879 162.265 336.879 161.167C336.879 160.068 336.671 159.093 336.254 158.24C335.837 157.388 335.179 156.721 334.279 156.238C333.389 155.755 332.215 155.513 330.757 155.513H325.245V180.84H320.856ZM371.712 166.294C371.712 169.4 371.144 172.071 370.007 174.306C368.871 176.531 367.313 178.245 365.334 179.448C363.364 180.641 361.125 181.238 358.615 181.238C356.096 181.238 353.847 180.641 351.868 179.448C349.899 178.245 348.346 176.526 347.209 174.292C346.073 172.057 345.505 169.391 345.505 166.294C345.505 163.188 346.073 160.523 347.209 158.297C348.346 156.062 349.899 154.348 351.868 153.155C353.847 151.953 356.096 151.351 358.615 151.351C361.125 151.351 363.364 151.953 365.334 153.155C367.313 154.348 368.871 156.062 370.007 158.297C371.144 160.523 371.712 163.188 371.712 166.294ZM367.365 166.294C367.365 163.927 366.982 161.934 366.215 160.314C365.457 158.685 364.416 157.454 363.09 156.621C361.774 155.778 360.282 155.357 358.615 155.357C356.939 155.357 355.443 155.778 354.127 156.621C352.81 157.454 351.769 158.685 351.002 160.314C350.244 161.934 349.865 163.927 349.865 166.294C349.865 168.662 350.244 170.66 351.002 172.289C351.769 173.908 352.81 175.139 354.127 175.982C355.443 176.815 356.939 177.232 358.615 177.232C360.282 177.232 361.774 176.815 363.09 175.982C364.416 175.139 365.457 173.908 366.215 172.289C366.982 170.66 367.365 168.662 367.365 166.294Z" fill="#211C4D"/>
</g>
<g filter="url(#filter2_d_1642_29792)">
<rect x="433.168" y="110.34" width="189.333" height="111" rx="11.5" stroke="#E0E5EB" shape-rendering="crispEdges"/>
<path d="M485.242 159.076C484.445 158.283 483.135 157.878 481.367 157.84C478.661 157.84 476.865 159.04 476.185 160.103C476.022 160.439 475.908 160.796 475.846 161.164C475.725 161.906 475.737 162.493 475.883 163.183C476.535 166.25 481.832 167.136 482.589 169.033C482.724 169.369 482.691 169.808 482.618 170.105C482.459 170.753 481.998 171.069 481.21 171.069C480.379 171.069 479.768 170.607 479.768 169.768L479.766 168.277H475.671L475.668 169.474C475.668 172.005 477.245 173.84 481.128 173.84C483.91 173.84 486.095 172.882 486.449 170.4C486.622 169.188 486.512 168.34 486.431 167.944C485.814 164.867 480.142 163.832 479.733 162.164C479.675 161.914 479.67 161.655 479.718 161.403C479.86 160.765 480.303 160.442 481.021 160.442C481.876 160.442 482.359 160.94 482.359 161.743V162.707H486.179V161.615C486.179 160.551 485.864 159.698 485.242 159.076Z" fill="#211C4D"/>
<path d="M574.692 173.548C574.868 173.548 575.032 173.53 575.202 173.522C576.096 173.477 578.347 173.11 579.337 171.665C579.69 171.149 579.915 170.545 579.98 169.832C580.026 169.326 580.03 169.123 580.032 168.849V164.814H574.663V167.082H576.181V169.188C576.183 169.341 576.178 169.56 576.145 169.744C576.128 169.851 575.933 170.787 574.679 170.787C573.416 170.787 573.221 169.851 573.202 169.744C573.178 169.608 573.166 169.424 573.169 169.188V162.392C573.169 162.118 573.188 161.871 573.228 161.699C573.299 161.386 573.58 160.657 574.666 160.657C575.765 160.657 576.033 161.385 576.096 161.699C576.138 161.904 576.144 162.234 576.144 162.252V163.134H580.002V162.543L580.002 162.525C580.003 162.373 580.005 161.979 579.967 161.609C579.666 158.534 576.927 157.895 574.693 157.895C571.807 157.895 569.724 158.979 569.408 161.607C569.378 161.852 569.346 162.325 569.346 162.594L569.345 168.847C569.346 169.13 569.354 169.337 569.398 169.832C569.645 172.552 572.025 173.548 574.692 173.548Z" fill="#211C4D"/>
<path d="M495.05 160.007L497.005 173.259H501.102L498.348 158.293H491.627L488.857 173.259H492.976L494.98 160.007H495.05Z" fill="#211C4D"/>
<path d="M516.727 160.263L516.818 173.259H520.636L520.305 158.293H514.147L512.348 169.41H512.26L510.466 158.293H504.304L503.972 173.259H507.803L507.891 160.263H507.96L510.371 173.259H514.237L516.661 160.263H516.727Z" fill="#211C4D"/>
<path d="M529.588 173.765C531.599 173.765 534.445 173.258 534.857 170.359C535.028 169.151 534.919 168.316 534.84 167.928C534.224 164.879 528.602 163.865 528.196 162.205C528.138 161.958 528.131 161.702 528.178 161.452C528.322 160.821 528.759 160.5 529.482 160.5C530.298 160.5 530.805 160.972 530.805 161.788V162.74H534.589V161.661C534.589 160.608 534.276 159.762 533.659 159.146C532.832 158.32 531.452 157.907 529.557 157.907C527.438 157.907 524.805 158.476 524.361 161.213C524.24 161.948 524.251 162.529 524.397 163.214C525.036 166.233 530.291 167.145 531.037 169.007C531.167 169.335 531.136 169.771 531.063 170.069C530.905 170.709 530.449 171.021 529.671 171.021C528.799 171.021 528.234 170.532 528.234 169.732L528.231 168.259H524.185L524.183 169.441C524.183 172.34 526.248 173.765 529.588 173.765Z" fill="#211C4D"/>
<path d="M548.833 169.985C548.849 169.841 548.876 169.28 548.87 168.999V158.289H545.014V169.339C545.014 169.577 545.001 169.768 544.979 169.899C544.928 170.141 544.683 170.939 543.594 170.939C542.501 170.939 542.257 170.142 542.209 169.896C542.184 169.769 542.171 169.587 542.176 169.339V158.289H538.305V169.002C538.304 169.33 538.316 169.658 538.342 169.985C538.571 172.45 540.34 173.704 543.594 173.704C546.835 173.704 548.602 172.45 548.833 169.985Z" fill="#211C4D"/>
<path d="M560.162 173.107H565.548V158.293H561.766L561.964 169.681H561.886L558.544 158.293H552.932V173.107H556.686L556.486 161.252H556.546L560.162 173.107Z" fill="#211C4D"/>
</g>
<g filter="url(#filter3_d_1642_29792)">
<rect x="647.5" y="110.34" width="189.333" height="111" rx="11.5" stroke="#E0E5EB" shape-rendering="crispEdges"/>
<path d="M727.626 174.84C724.003 174.84 720.641 173.729 718.396 171.669C716.7 170.113 715.885 167.999 715.885 165.824C715.885 163.675 716.735 161.547 718.396 159.999C720.48 158.056 724.161 156.84 727.626 156.84C731.46 156.84 734.529 157.827 736.876 160.004C738.545 161.553 739.352 163.672 739.352 165.824C739.352 167.911 738.495 170.133 736.876 171.669C734.691 173.743 731.257 174.84 727.626 174.84V172.466C729.548 172.466 731.332 171.787 732.578 170.52C733.814 169.261 734.391 167.715 734.391 165.824C734.391 164.013 733.769 162.319 732.578 161.118C731.349 159.881 729.522 159.185 727.626 159.185C725.723 159.185 723.896 159.874 722.666 161.118C721.481 162.319 720.857 164.017 720.857 165.824C720.857 167.625 721.488 169.322 722.666 170.52C723.897 171.772 725.718 172.466 727.626 172.466V174.84ZM701.149 156.848C699.211 156.848 697.01 157.219 695.139 158.073C693.413 158.861 692 160.134 692 162.246C691.999 164.147 693.181 165.261 693.149 165.23C693.652 165.704 694.461 166.509 696.578 166.983C697.523 167.194 699.546 167.519 701.559 167.734C703.558 167.95 705.525 168.154 706.326 168.362C706.963 168.528 708.032 168.753 708.032 169.98C708.032 171.201 706.906 171.574 706.71 171.655C706.514 171.734 705.163 172.368 702.734 172.368C700.94 172.368 698.784 171.816 697.998 171.529C697.092 171.199 696.141 170.763 695.255 169.656C695.034 169.382 694.687 168.627 694.687 167.879H692.488V174.178H694.932V173.327C694.932 173.23 695.05 172.831 695.46 173.021C695.971 173.258 697.469 173.868 699.036 174.202C700.32 174.477 701.149 174.674 702.746 174.674C705.351 174.674 706.751 174.24 707.719 173.957C708.631 173.691 709.757 173.211 710.672 172.465C711.168 172.062 712.254 171.028 712.254 169.151C712.254 167.349 711.309 166.231 710.976 165.891C710.523 165.427 709.969 165.068 709.392 164.791C708.89 164.549 708.096 164.259 707.447 164.096C706.188 163.78 703.34 163.39 701.978 163.244C700.549 163.092 698.071 162.882 697.082 162.569C696.782 162.474 696.17 162.176 696.17 161.45C696.17 160.934 696.45 160.496 697.003 160.142C697.88 159.58 699.653 159.231 701.5 159.231C703.685 159.222 705.535 159.733 706.711 160.271C707.111 160.454 707.58 160.716 707.952 161.026C708.371 161.376 708.96 162.103 709.173 163.117H711.147V157.634H708.943V158.272C708.943 158.477 708.736 158.745 708.343 158.524C707.356 157.995 704.568 156.853 701.149 156.848ZM749.449 157.845L760.2 167.765L760.09 161.086C760.079 160.21 759.921 159.844 758.995 159.844H756.973V157.846H766.166V159.844H764.194C763.249 159.844 763.19 160.153 763.178 161.086L763.345 173.848H760.197L747.813 162.548L747.816 170.568C747.827 171.439 747.866 171.85 748.745 171.85H750.953V173.847H741.925V171.85H744.035C744.823 171.85 744.792 171.082 744.792 170.522V161.162C744.792 160.558 744.709 159.846 743.471 159.846H741.759V157.845H749.449ZM776.671 171.846C776.757 171.846 777.141 171.835 777.215 171.812C777.427 171.744 777.571 171.589 777.638 171.428C777.666 171.36 777.68 171.06 777.68 170.995L777.682 167.838C777.682 167.762 777.676 167.729 777.55 167.56C777.411 167.375 771.918 161.011 771.667 160.73C771.355 160.382 770.807 159.845 769.974 159.845H768.063V157.846H778.844V159.842H777.544C777.244 159.842 777.044 160.134 777.301 160.458C777.301 160.458 780.928 164.894 780.962 164.94C780.996 164.987 781.025 164.998 781.071 164.955C781.116 164.911 784.789 160.498 784.818 160.463C784.993 160.249 784.874 159.844 784.498 159.844H783.165V157.846H792V159.844H790.026C789.31 159.844 789.019 159.98 788.48 160.603C788.234 160.888 782.682 167.366 782.531 167.542C782.452 167.633 782.459 167.761 782.459 167.837V170.994C782.459 171.058 782.473 171.359 782.501 171.426C782.568 171.588 782.712 171.743 782.924 171.81C782.999 171.833 783.377 171.845 783.463 171.845H785.482V173.843H774.757V171.845L776.671 171.846Z" fill="#211C4D"/>
</g>
<g filter="url(#filter4_d_1642_29792)">
<rect x="861.832" y="110.34" width="189.333" height="111" rx="11.5" stroke="#E0E5EB" shape-rendering="crispEdges"/>
<path d="M928.523 163.438C928.48 159.009 932.201 156.881 932.368 156.78C930.274 153.769 927.021 153.356 925.863 153.309C923.095 153.03 920.46 154.913 919.052 154.913C917.645 154.913 915.478 153.347 913.182 153.394C910.161 153.436 907.376 155.12 905.818 157.78C902.685 163.125 905.02 171.062 908.08 175.407C909.577 177.53 911.354 179.924 913.697 179.836C915.954 179.747 916.804 178.4 919.524 178.4C922.245 178.4 923.013 179.836 925.395 179.793C927.82 179.747 929.356 177.623 930.841 175.491C932.549 173.021 933.257 170.636 933.3 170.509C933.244 170.488 928.575 168.728 928.523 163.438Z" fill="#211C4D"/>
<path d="M924.047 150.43C925.292 148.948 926.129 146.892 925.901 144.84C924.112 144.912 921.945 146.014 920.661 147.495C919.511 148.804 918.503 150.898 918.778 152.908C920.764 153.06 922.807 151.907 924.047 150.43ZM944.216 167.79L942.157 173.933H939.509L946.251 154.411H949.34L956.108 173.933H953.37L951.25 167.79H944.216ZM950.722 165.819L948.782 160.199C948.34 158.924 948.049 157.767 947.752 156.636H947.697C947.401 157.793 947.079 158.979 946.697 160.17L944.757 165.815L950.722 165.819ZM958.116 164.489C958.116 162.694 958.06 161.242 957.996 159.912H960.322L960.442 162.319H960.498C961.558 160.609 963.236 159.596 965.561 159.596C969.007 159.596 971.595 162.462 971.595 166.722C971.595 171.763 968.475 174.25 965.119 174.25C963.236 174.25 961.588 173.439 960.734 172.05H960.678V179.667H958.116V164.489ZM960.674 168.225C960.674 168.605 960.729 168.947 960.794 169.268C961.266 171.033 962.824 172.253 964.682 172.253C967.42 172.253 969.012 170.053 969.012 166.836C969.012 164.024 967.51 161.626 964.772 161.626C963.008 161.626 961.36 162.872 960.854 164.784C960.764 165.101 960.678 165.481 960.678 165.827L960.674 168.225ZM974.273 164.489C974.273 162.694 974.217 161.242 974.153 159.912H976.479L976.599 162.319H976.654C977.714 160.609 979.392 159.596 981.718 159.596C985.164 159.596 987.752 162.462 987.752 166.722C987.752 171.763 984.632 174.25 981.276 174.25C979.392 174.25 977.744 173.439 976.891 172.05H976.835V179.667H974.273V164.489ZM976.835 168.225C976.835 168.605 976.891 168.947 976.955 169.268C977.427 171.033 978.985 172.253 980.843 172.253C983.581 172.253 985.173 170.053 985.173 166.836C985.173 164.024 983.671 161.626 980.933 161.626C979.169 161.626 977.521 162.872 977.015 164.784C976.925 165.101 976.839 165.481 976.839 165.827L976.835 168.225ZM990.434 153.368H993.026V173.929H990.434V153.368ZM998.236 167.385C998.291 170.83 1000.53 172.253 1003.12 172.253C1004.97 172.253 1006.09 171.936 1007.06 171.531L1007.5 173.355C1006.59 173.76 1005.03 174.225 1002.77 174.225C998.381 174.225 995.759 171.387 995.759 167.157C995.759 162.927 998.291 159.596 1002.44 159.596C1007.09 159.596 1008.33 163.619 1008.33 166.199C1008.33 166.722 1008.27 167.123 1008.24 167.385H998.236ZM1005.83 165.561C1005.86 163.94 1005.15 161.419 1002.24 161.419C999.617 161.419 998.472 163.796 998.266 165.561H1005.83Z" fill="#211C4D"/>
</g>
<g filter="url(#filter5_d_1642_29792)">
<rect x="1076.17" y="110.34" width="189.333" height="111" rx="11.5" stroke="#E0E5EB" shape-rendering="crispEdges"/>
<path d="M1147.13 166.294C1147.13 169.4 1146.57 172.071 1145.43 174.306C1144.29 176.531 1142.74 178.245 1140.76 179.448C1138.79 180.641 1136.55 181.238 1134.04 181.238C1131.52 181.238 1129.27 180.641 1127.29 179.448C1125.32 178.245 1123.77 176.526 1122.63 174.292C1121.49 172.057 1120.93 169.391 1120.93 166.294C1120.93 163.188 1121.49 160.523 1122.63 158.297C1123.77 156.062 1125.32 154.348 1127.29 153.155C1129.27 151.953 1131.52 151.351 1134.04 151.351C1136.55 151.351 1138.79 151.953 1140.76 153.155C1142.74 154.348 1144.29 156.062 1145.43 158.297C1146.57 160.523 1147.13 163.188 1147.13 166.294ZM1142.79 166.294C1142.79 163.927 1142.4 161.934 1141.64 160.314C1140.88 158.685 1139.84 157.454 1138.51 156.621C1137.2 155.778 1135.7 155.357 1134.04 155.357C1132.36 155.357 1130.86 155.778 1129.55 156.621C1128.23 157.454 1127.19 158.685 1126.42 160.314C1125.67 161.934 1125.29 163.927 1125.29 166.294C1125.29 168.662 1125.67 170.66 1126.42 172.289C1127.19 173.908 1128.23 175.139 1129.55 175.982C1130.86 176.815 1132.36 177.232 1134.04 177.232C1135.7 177.232 1137.2 176.815 1138.51 175.982C1139.84 175.139 1140.88 173.908 1141.64 172.289C1142.4 170.66 1142.79 168.662 1142.79 166.294ZM1152.61 180.84V151.749H1162.98C1165.24 151.749 1167.11 152.161 1168.6 152.985C1170.09 153.809 1171.2 154.935 1171.94 156.365C1172.68 157.786 1173.05 159.386 1173.05 161.167C1173.05 162.956 1172.67 164.566 1171.92 165.996C1171.19 167.417 1170.07 168.543 1168.57 169.377C1167.09 170.201 1165.22 170.613 1162.96 170.613H1155.83V166.891H1162.56C1163.99 166.891 1165.15 166.645 1166.04 166.152C1166.93 165.65 1167.59 164.969 1168 164.107C1168.42 163.245 1168.63 162.265 1168.63 161.167C1168.63 160.068 1168.42 159.093 1168 158.24C1167.59 157.388 1166.93 156.721 1166.03 156.238C1165.14 155.755 1163.97 155.513 1162.51 155.513H1157V180.84H1152.61ZM1178.19 180.84V151.749H1188.56C1190.82 151.749 1192.7 152.161 1194.19 152.985C1195.67 153.809 1196.79 154.935 1197.52 156.365C1198.26 157.786 1198.63 159.386 1198.63 161.167C1198.63 162.956 1198.26 164.566 1197.51 165.996C1196.77 167.417 1195.65 168.543 1194.16 169.377C1192.67 170.201 1190.8 170.613 1188.55 170.613H1181.42V166.891H1188.15C1189.58 166.891 1190.74 166.645 1191.63 166.152C1192.52 165.65 1193.17 164.969 1193.59 164.107C1194.01 163.245 1194.21 162.265 1194.21 161.167C1194.21 160.068 1194.01 159.093 1193.59 158.24C1193.17 157.388 1192.52 156.721 1191.62 156.238C1190.73 155.755 1189.55 155.513 1188.09 155.513H1182.58V180.84H1178.19ZM1229.05 166.294C1229.05 169.4 1228.48 172.071 1227.34 174.306C1226.21 176.531 1224.65 178.245 1222.67 179.448C1220.7 180.641 1218.46 181.238 1215.95 181.238C1213.43 181.238 1211.18 180.641 1209.2 179.448C1207.23 178.245 1205.68 176.526 1204.55 174.292C1203.41 172.057 1202.84 169.391 1202.84 166.294C1202.84 163.188 1203.41 160.523 1204.55 158.297C1205.68 156.062 1207.23 154.348 1209.2 153.155C1211.18 151.953 1213.43 151.351 1215.95 151.351C1218.46 151.351 1220.7 151.953 1222.67 153.155C1224.65 154.348 1226.21 156.062 1227.34 158.297C1228.48 160.523 1229.05 163.188 1229.05 166.294ZM1224.7 166.294C1224.7 163.927 1224.32 161.934 1223.55 160.314C1222.79 158.685 1221.75 157.454 1220.43 156.621C1219.11 155.778 1217.62 155.357 1215.95 155.357C1214.28 155.357 1212.78 155.778 1211.46 156.621C1210.15 157.454 1209.1 158.685 1208.34 160.314C1207.58 161.934 1207.2 163.927 1207.2 166.294C1207.2 168.662 1207.58 170.66 1208.34 172.289C1209.1 173.908 1210.15 175.139 1211.46 175.982C1212.78 176.815 1214.28 177.232 1215.95 177.232C1217.62 177.232 1219.11 176.815 1220.43 175.982C1221.75 175.139 1222.79 173.908 1223.55 172.289C1224.32 170.66 1224.7 168.662 1224.7 166.294Z" fill="#211C4D"/>
</g>
<path d="M493.181 43.7117C491.288 43.7117 489.648 43.4717 488.261 42.9917C486.901 42.4851 485.848 41.6851 485.101 40.5917C484.355 39.4717 483.928 37.9784 483.821 36.1117L483.101 19.9917H488.741L489.421 34.1517C489.475 35.2451 489.648 36.0851 489.941 36.6717C490.261 37.2317 490.715 37.6184 491.301 37.8317C491.888 38.0184 492.648 38.1117 493.581 38.1117C494.595 38.1117 495.315 38.3784 495.741 38.9117C496.168 39.4184 496.381 40.0584 496.381 40.8317C496.381 41.6584 496.101 42.3517 495.541 42.9117C495.008 43.4451 494.221 43.7117 493.181 43.7117ZM485.861 39.9917C484.075 40.3917 482.355 40.5784 480.701 40.5517C479.048 40.4984 477.568 40.2051 476.261 39.6717C474.955 39.1117 473.915 38.3117 473.141 37.2717C472.395 36.2317 472.021 34.9117 472.021 33.3117C472.021 31.8984 472.328 30.6184 472.941 29.4717C473.581 28.2984 474.461 27.2717 475.581 26.3917C476.728 25.5117 478.061 24.7651 479.581 24.1517C481.101 23.5384 482.755 23.0717 484.541 22.7517L485.101 28.4317C483.955 28.4851 482.915 28.6451 481.981 28.9117C481.075 29.1517 480.288 29.4717 479.621 29.8717C478.981 30.2717 478.488 30.7251 478.141 31.2317C477.795 31.7117 477.621 32.2317 477.621 32.7917C477.621 33.2451 477.781 33.6184 478.101 33.9117C478.421 34.2051 478.848 34.4451 479.381 34.6317C479.915 34.7917 480.528 34.8851 481.221 34.9117C481.915 34.9384 482.621 34.8984 483.341 34.7917C484.088 34.6851 484.821 34.5117 485.541 34.2717L485.861 39.9917ZM485.981 15.8717C485.208 15.8717 484.541 15.6051 483.981 15.0717C483.448 14.5117 483.181 13.8584 483.181 13.1117C483.181 12.3384 483.448 11.6717 483.981 11.1117C484.541 10.5517 485.208 10.2717 485.981 10.2717C486.728 10.2717 487.368 10.5517 487.901 11.1117C488.435 11.6717 488.701 12.3384 488.701 13.1117C488.701 13.8584 488.435 14.5117 487.901 15.0717C487.368 15.6051 486.728 15.8717 485.981 15.8717ZM479.061 15.8317C478.288 15.8317 477.621 15.5651 477.061 15.0317C476.528 14.4717 476.261 13.8184 476.261 13.0717C476.261 12.2984 476.528 11.6317 477.061 11.0717C477.621 10.5117 478.288 10.2317 479.061 10.2317C479.808 10.2317 480.448 10.5117 480.981 11.0717C481.515 11.6317 481.781 12.2984 481.781 13.0717C481.781 13.8184 481.515 14.4717 480.981 15.0317C480.448 15.5651 479.808 15.8317 479.061 15.8317ZM493.168 43.7117L493.568 38.1117C495.168 38.1117 496.395 38.0317 497.248 37.8717C498.101 37.7117 498.688 37.4184 499.008 36.9917C499.355 36.5384 499.528 35.8984 499.528 35.0717C499.528 34.3251 499.421 33.4317 499.208 32.3917C499.021 31.3517 498.768 30.2717 498.448 29.1517C498.155 28.0317 497.835 27.0051 497.488 26.0717L503.008 24.5517C503.355 25.4584 503.688 26.5117 504.008 27.7117C504.328 28.9117 504.595 30.1517 504.808 31.4317C505.021 32.6851 505.128 33.8984 505.128 35.0717C505.128 36.8851 504.835 38.3651 504.248 39.5117C503.661 40.6317 502.835 41.4984 501.768 42.1117C500.728 42.7251 499.475 43.1517 498.008 43.3917C496.541 43.6051 494.928 43.7117 493.168 43.7117ZM503.048 52.9917C502.275 52.9917 501.608 52.7117 501.048 52.1517C500.515 51.6184 500.248 50.9784 500.248 50.2317C500.248 49.4584 500.515 48.7917 501.048 48.2317C501.608 47.6717 502.275 47.3917 503.048 47.3917C503.795 47.3917 504.435 47.6717 504.968 48.2317C505.501 48.7917 505.768 49.4584 505.768 50.2317C505.768 50.9784 505.501 51.6184 504.968 52.1517C504.435 52.7117 503.795 52.9917 503.048 52.9917ZM496.128 52.9917C495.355 52.9917 494.688 52.7117 494.128 52.1517C493.595 51.6184 493.328 50.9784 493.328 50.2317C493.328 49.4584 493.595 48.7917 494.128 48.2317C494.688 47.6717 495.355 47.3917 496.128 47.3917C496.875 47.3917 497.515 47.6717 498.048 48.2317C498.581 48.7917 498.848 49.4584 498.848 50.2317C498.848 50.9784 498.581 51.6184 498.048 52.1517C497.515 52.7117 496.875 52.9917 496.128 52.9917ZM508.183 52.7117L506.143 47.5917C508.436 46.7917 510.29 45.9117 511.703 44.9517C513.143 43.9917 514.196 42.9651 514.863 41.8717C515.556 40.7784 515.903 39.6451 515.903 38.4717C515.903 37.7251 515.796 36.9517 515.583 36.1517C515.37 35.3251 515.063 34.4584 514.663 33.5517C514.29 32.6451 513.836 31.6984 513.303 30.7117L518.543 28.1917C519.476 29.9784 520.196 31.6851 520.703 33.3117C521.236 34.9384 521.503 36.4584 521.503 37.8717C521.503 39.1784 521.33 40.4317 520.983 41.6317C520.663 42.8317 520.156 43.9517 519.463 44.9917C518.796 46.0584 517.93 47.0584 516.863 47.9917C515.796 48.9251 514.543 49.7784 513.103 50.5517C511.663 51.3517 510.023 52.0717 508.183 52.7117ZM536.59 43.7117C534.11 43.7117 532.19 43.4584 530.83 42.9517C529.497 42.4451 528.563 41.6584 528.03 40.5917C527.497 39.4984 527.19 38.1251 527.11 36.4717L526.27 14.2317H531.87L532.71 33.7917C532.763 35.0184 532.897 35.9384 533.11 36.5517C533.323 37.1651 533.723 37.5784 534.31 37.7917C534.923 38.0051 535.817 38.1117 536.99 38.1117C538.003 38.1117 538.723 38.3784 539.15 38.9117C539.603 39.4184 539.83 40.0584 539.83 40.8317C539.83 41.6584 539.55 42.3517 538.99 42.9117C538.43 43.4451 537.63 43.7117 536.59 43.7117ZM562.805 43.7117C561.578 43.7117 560.431 43.6184 559.365 43.4317C558.325 43.2451 557.365 42.9251 556.485 42.4717C555.605 41.9917 554.818 41.3384 554.125 40.5117C553.458 39.6851 552.898 38.6451 552.445 37.3917L555.605 34.8717C556.085 35.7251 556.671 36.3917 557.365 36.8717C558.058 37.3251 558.885 37.6451 559.845 37.8317C560.805 38.0184 561.925 38.1117 563.205 38.1117C564.218 38.1117 564.938 38.3784 565.365 38.9117C565.791 39.4184 566.005 40.0584 566.005 40.8317C566.005 41.6584 565.725 42.3517 565.165 42.9117C564.631 43.4451 563.845 43.7117 562.805 43.7117ZM536.645 43.7117L537.045 38.1117C538.485 38.1117 539.911 38.0317 541.325 37.8717C542.738 37.7117 544.111 37.4717 545.445 37.1517C546.778 36.8317 548.045 36.4184 549.245 35.9117C550.471 35.4051 551.618 34.7917 552.685 34.0717C551.885 33.5917 551.018 33.1784 550.085 32.8317C549.151 32.4851 548.151 32.2317 547.085 32.0717C546.045 31.8851 544.938 31.7917 543.765 31.7917C543.338 31.7917 542.885 31.8051 542.405 31.8317C541.951 31.8584 541.485 31.9117 541.005 31.9917C540.525 32.0451 540.045 32.1251 539.565 32.2317L538.765 26.7517C539.538 26.5384 540.351 26.3917 541.205 26.3117C542.085 26.2051 542.858 26.1517 543.525 26.1517C544.965 26.1517 546.285 26.3117 547.485 26.6317C548.711 26.9517 549.831 27.3517 550.845 27.8317C551.885 28.3117 552.845 28.7917 553.725 29.2717C554.631 29.7517 555.485 30.1517 556.285 30.4717C557.111 30.7917 557.911 30.9517 558.685 30.9517H560.165L560.805 36.2717C559.658 36.3251 558.578 36.5517 557.565 36.9517C556.578 37.3251 555.591 37.8051 554.605 38.3917C553.645 38.9517 552.605 39.5384 551.485 40.1517C550.391 40.7651 549.151 41.3384 547.765 41.8717C546.378 42.4051 544.778 42.8451 542.965 43.1917C541.151 43.5384 539.045 43.7117 536.645 43.7117ZM547.965 52.7117C547.191 52.7117 546.525 52.4451 545.965 51.9117C545.431 51.3784 545.165 50.7251 545.165 49.9517C545.165 49.1784 545.431 48.4984 545.965 47.9117C546.525 47.3517 547.191 47.0717 547.965 47.0717C548.738 47.0717 549.391 47.3517 549.925 47.9117C550.485 48.4984 550.765 49.1784 550.765 49.9517C550.765 50.7251 550.485 51.3784 549.925 51.9117C549.391 52.4451 548.738 52.7117 547.965 52.7117ZM562.816 43.7117L563.216 38.1117C564.176 38.1117 565.003 38.0184 565.696 37.8317C566.39 37.6451 566.976 37.2717 567.456 36.7117C567.936 36.1251 568.336 35.2717 568.656 34.1517C569.003 33.0317 569.31 31.5384 569.576 29.6717L574.816 30.5517C574.763 30.9517 574.683 31.4184 574.576 31.9517C574.496 32.4851 574.416 33.0317 574.336 33.5917C574.283 34.1251 574.256 34.6317 574.256 35.1117C574.256 35.5917 574.35 36.0184 574.536 36.3917C574.723 36.7651 575.016 37.0851 575.416 37.3517C575.843 37.5917 576.39 37.7784 577.056 37.9117C577.75 38.0451 578.59 38.1117 579.576 38.1117C580.59 38.1117 581.31 38.3784 581.736 38.9117C582.163 39.4184 582.376 40.0584 582.376 40.8317C582.376 41.6584 582.096 42.3517 581.536 42.9117C581.003 43.4451 580.216 43.7117 579.176 43.7117C577.976 43.7117 576.883 43.6184 575.896 43.4317C574.936 43.2451 574.096 42.9384 573.376 42.5117C572.683 42.0584 572.11 41.4717 571.656 40.7517C571.23 40.0051 570.963 39.0984 570.856 38.0317H572.776C572.296 39.3117 571.683 40.3384 570.936 41.1117C570.216 41.8584 569.403 42.4184 568.496 42.7917C567.59 43.1651 566.643 43.4051 565.656 43.5117C564.696 43.6451 563.75 43.7117 562.816 43.7117ZM575.656 26.0717C574.883 26.0717 574.216 25.8051 573.656 25.2717C573.123 24.7117 572.856 24.0584 572.856 23.3117C572.856 22.5384 573.123 21.8717 573.656 21.3117C574.216 20.7517 574.883 20.4717 575.656 20.4717C576.403 20.4717 577.043 20.7517 577.576 21.3117C578.11 21.8717 578.376 22.5384 578.376 23.3117C578.376 24.0584 578.11 24.7117 577.576 25.2717C577.043 25.8051 576.403 26.0717 575.656 26.0717ZM568.736 26.0317C567.963 26.0317 567.296 25.7651 566.736 25.2317C566.203 24.6717 565.936 24.0184 565.936 23.2717C565.936 22.4984 566.203 21.8317 566.736 21.2717C567.296 20.7117 567.963 20.4317 568.736 20.4317C569.483 20.4317 570.123 20.7117 570.656 21.2717C571.19 21.8317 571.456 22.4984 571.456 23.2717C571.456 24.0184 571.19 24.6717 570.656 25.2317C570.123 25.7651 569.483 26.0317 568.736 26.0317ZM579.184 43.7117L579.584 38.1117C580.81 38.1117 581.69 37.9917 582.224 37.7517C582.757 37.4851 583.077 37.0051 583.184 36.3117C583.29 35.5917 583.317 34.5517 583.264 33.1917L582.544 14.2317H588.184L588.984 33.5917C589.037 35.1384 588.97 36.5384 588.784 37.7917C588.624 39.0184 588.21 40.0717 587.544 40.9517C586.904 41.8317 585.904 42.5117 584.544 42.9917C583.21 43.4717 581.424 43.7117 579.184 43.7117ZM594.259 43.5117L593.419 14.2317H599.019L599.859 43.5117H594.259ZM628.957 44.3517L629.997 38.7517C632.584 38.7517 634.837 38.6851 636.757 38.5517C638.677 38.3917 640.264 38.1651 641.517 37.8717C642.797 37.5517 643.744 37.1384 644.357 36.6317C644.997 36.1251 645.317 35.5117 645.317 34.7917C645.317 33.8317 645.157 32.6851 644.837 31.3517C644.517 29.9917 644.104 28.6184 643.597 27.2317L648.837 25.7117C649.184 26.6184 649.517 27.6184 649.837 28.7117C650.157 29.7784 650.41 30.8584 650.597 31.9517C650.81 33.0184 650.917 34.0184 650.917 34.9517C650.917 36.6051 650.557 38.0317 649.837 39.2317C649.117 40.4051 647.917 41.3784 646.237 42.1517C644.584 42.8984 642.344 43.4451 639.517 43.7917C636.69 44.1651 633.17 44.3517 628.957 44.3517ZM628.917 44.3517C626.037 44.3517 623.597 44.1251 621.597 43.6717C619.624 43.2451 618.01 42.6317 616.757 41.8317C615.53 41.0051 614.637 40.0451 614.077 38.9517C613.517 37.8584 613.237 36.6584 613.237 35.3517C613.237 34.4984 613.304 33.6451 613.437 32.7917C613.597 31.9117 613.784 31.0584 613.997 30.2317C614.237 29.4051 614.45 28.6584 614.637 27.9917L619.637 29.1517C619.53 29.6317 619.41 30.1517 619.277 30.7117C619.144 31.2717 619.037 31.8184 618.957 32.3517C618.877 32.8584 618.837 33.3251 618.837 33.7517C618.837 34.7384 619.184 35.6184 619.877 36.3917C620.597 37.1384 621.77 37.7251 623.397 38.1517C625.024 38.5517 627.21 38.7517 629.957 38.7517L630.757 43.0717L628.917 44.3517ZM635.517 26.0717C634.744 26.0717 634.077 25.8051 633.517 25.2717C632.984 24.7117 632.717 24.0584 632.717 23.3117C632.717 22.5384 632.984 21.8717 633.517 21.3117C634.077 20.7517 634.744 20.4717 635.517 20.4717C636.264 20.4717 636.904 20.7517 637.437 21.3117C637.97 21.8717 638.237 22.5384 638.237 23.3117C638.237 24.0584 637.97 24.7117 637.437 25.2717C636.904 25.8051 636.264 26.0717 635.517 26.0717ZM628.597 26.0317C627.824 26.0317 627.157 25.7651 626.597 25.2317C626.064 24.6717 625.797 24.0184 625.797 23.2717C625.797 22.4984 626.064 21.8317 626.597 21.2717C627.157 20.7117 627.824 20.4317 628.597 20.4317C629.344 20.4317 629.984 20.7117 630.517 21.2717C631.05 21.8317 631.317 22.4984 631.317 23.2717C631.317 24.0184 631.05 24.6717 630.517 25.2317C629.984 25.7651 629.344 26.0317 628.597 26.0317ZM665.614 43.7117C663.134 43.7117 661.214 43.4584 659.854 42.9517C658.52 42.4451 657.587 41.6584 657.054 40.5917C656.52 39.4984 656.214 38.1251 656.134 36.4717L655.294 14.2317H660.894L661.734 33.7917C661.787 35.0184 661.92 35.9384 662.134 36.5517C662.347 37.1651 662.747 37.5784 663.334 37.7917C663.947 38.0051 664.84 38.1117 666.014 38.1117C667.027 38.1117 667.747 38.3784 668.174 38.9117C668.627 39.4184 668.854 40.0584 668.854 40.8317C668.854 41.6584 668.574 42.3517 668.014 42.9117C667.454 43.4451 666.654 43.7117 665.614 43.7117ZM665.668 43.7117L666.068 38.1117C666.681 38.1117 667.201 37.9651 667.628 37.6717C668.081 37.3517 668.548 36.8317 669.028 36.1117C669.508 35.3651 670.068 34.3651 670.708 33.1117C671.508 31.5117 672.335 30.2584 673.188 29.3517C674.068 28.4451 674.961 27.8051 675.868 27.4317C676.801 27.0317 677.735 26.8317 678.668 26.8317C679.841 26.8317 680.935 27.0851 681.948 27.5917C682.961 28.0984 683.841 28.7917 684.588 29.6717C685.335 30.5251 685.908 31.5117 686.308 32.6317C686.735 33.7251 686.948 34.8584 686.948 36.0317C686.948 37.4451 686.641 38.7251 686.028 39.8717C685.441 40.9917 684.615 41.8851 683.548 42.5517C682.508 43.1917 681.308 43.5117 679.948 43.5117C678.801 43.5117 677.468 43.3117 675.948 42.9117C674.428 42.5117 672.828 41.6717 671.148 40.3917L673.188 35.5517C674.388 36.3784 675.508 36.9784 676.548 37.3517C677.615 37.7251 678.495 37.9117 679.188 37.9117C679.721 37.9117 680.161 37.8584 680.508 37.7517C680.855 37.6451 681.108 37.4717 681.268 37.2317C681.428 36.9917 681.508 36.6717 681.508 36.2717C681.508 35.7117 681.375 35.1384 681.108 34.5517C680.841 33.9651 680.481 33.4717 680.028 33.0717C679.601 32.6451 679.095 32.4317 678.508 32.4317C677.948 32.4317 677.468 32.6451 677.068 33.0717C676.695 33.4717 676.321 34.0584 675.948 34.8317C675.601 35.5784 675.175 36.4584 674.668 37.4717C674.055 38.6984 673.455 39.7251 672.868 40.5517C672.281 41.3517 671.655 41.9917 670.988 42.4717C670.348 42.9251 669.588 43.2451 668.708 43.4317C667.855 43.6184 666.841 43.7117 665.668 43.7117ZM716.149 43.7117C714.283 43.7117 712.736 43.5784 711.509 43.3117C710.309 43.0184 709.363 42.5784 708.669 41.9917C707.976 41.3784 707.483 40.6184 707.189 39.7117C706.896 38.8051 706.723 37.7251 706.669 36.4717L705.829 14.2317H711.429L712.269 33.7917C712.323 35.0184 712.456 35.9384 712.669 36.5517C712.883 37.1651 713.283 37.5784 713.869 37.7917C714.483 38.0051 715.376 38.1117 716.549 38.1117C717.563 38.1117 718.283 38.3784 718.709 38.9117C719.163 39.4184 719.389 40.0584 719.389 40.8317C719.389 41.6584 719.109 42.3517 718.549 42.9117C717.989 43.4451 717.189 43.7117 716.149 43.7117ZM694.629 43.7117C693.909 43.7117 693.176 43.6451 692.429 43.5117C691.709 43.4051 691.203 43.3251 690.909 43.2717L691.669 37.4717C693.509 37.7117 695.296 37.7651 697.029 37.6317C698.789 37.4717 700.363 37.0451 701.749 36.3517C703.163 35.6317 704.283 34.5917 705.109 33.2317C705.936 31.8451 706.349 30.0584 706.349 27.8717L708.509 34.1517C708.189 35.9651 707.643 37.4717 706.869 38.6717C706.123 39.8451 705.229 40.7784 704.189 41.4717C703.176 42.1384 702.096 42.6317 700.949 42.9517C699.803 43.2717 698.683 43.4717 697.589 43.5517C696.496 43.6584 695.509 43.7117 694.629 43.7117ZM703.309 38.2317C702.909 37.4584 702.336 36.5517 701.589 35.5117C700.843 34.4451 699.923 33.2717 698.829 31.9917C697.763 30.6851 696.536 29.3117 695.149 27.8717C693.763 26.4051 692.229 24.8984 690.549 23.3517L694.029 19.5517C696.509 21.8984 698.523 23.8717 700.069 25.4717C701.616 27.0717 702.843 28.4184 703.749 29.5117C704.683 30.5784 705.389 31.4984 705.869 32.2717C706.376 33.0451 706.803 33.7917 707.149 34.5117L703.309 38.2317ZM716.016 43.7117L716.416 38.1117C718.282 38.1117 719.962 37.9917 721.456 37.7517C722.949 37.4851 724.256 37.1384 725.376 36.7117C726.522 36.2851 727.469 35.7917 728.216 35.2317C728.989 34.6717 729.562 34.0851 729.936 33.4717C730.336 32.8317 730.536 32.2051 730.536 31.5917C730.536 31.2451 730.442 30.9251 730.256 30.6317C730.096 30.3117 729.816 30.0584 729.416 29.8717C729.016 29.6584 728.469 29.5517 727.776 29.5517C727.429 29.5517 727.016 29.5917 726.536 29.6717C726.056 29.7517 725.576 29.8717 725.096 30.0317C724.616 30.1651 724.162 30.3517 723.736 30.5917C724.296 31.0184 724.909 31.5651 725.576 32.2317C726.242 32.8717 726.909 33.5517 727.576 34.2717C728.242 34.9651 728.816 35.6451 729.296 36.3117C729.856 36.5517 730.469 36.7917 731.136 37.0317C731.829 37.2451 732.576 37.4317 733.376 37.5917C734.176 37.7517 735.016 37.8851 735.896 37.9917C736.776 38.0717 737.682 38.1117 738.616 38.1117C739.629 38.1117 740.349 38.3784 740.776 38.9117C741.229 39.4184 741.456 40.0584 741.456 40.8317C741.456 41.6584 741.176 42.3517 740.616 42.9117C740.056 43.4451 739.256 43.7117 738.216 43.7117C736.082 43.7117 734.189 43.5517 732.536 43.2317C730.882 42.8851 729.402 42.3917 728.096 41.7517C726.816 41.0851 725.616 40.2851 724.496 39.3517C724.176 38.7917 723.722 38.1917 723.136 37.5517C722.576 36.8851 721.976 36.2451 721.336 35.6317C720.722 35.0184 720.162 34.5117 719.656 34.1117C719.522 34.0051 719.362 33.7251 719.176 33.2717C719.016 32.7917 718.869 32.2984 718.736 31.7917C718.602 31.2584 718.536 30.8851 718.536 30.6717C718.536 30.0584 718.816 29.4051 719.376 28.7117C719.962 28.0184 720.736 27.3784 721.696 26.7917C722.682 26.1784 723.762 25.6851 724.936 25.3117C726.136 24.9117 727.349 24.7117 728.576 24.7117C730.229 24.7117 731.602 24.9651 732.696 25.4717C733.816 25.9517 734.656 26.6317 735.216 27.5117C735.776 28.3651 736.056 29.3651 736.056 30.5117C736.056 31.7917 735.776 33.0717 735.216 34.3517C734.656 35.6051 733.829 36.7917 732.736 37.9117C731.669 39.0317 730.322 40.0317 728.696 40.9117C727.096 41.7651 725.229 42.4451 723.096 42.9517C720.989 43.4584 718.629 43.7117 716.016 43.7117ZM738.246 43.7117L738.646 38.1117C739.873 38.1117 740.753 37.9917 741.286 37.7517C741.819 37.4851 742.139 37.0051 742.246 36.3117C742.353 35.5917 742.379 34.5517 742.326 33.1917L741.606 14.2317H747.246L748.046 33.5917C748.099 35.1384 748.033 36.5384 747.846 37.7917C747.686 39.0184 747.273 40.0717 746.606 40.9517C745.966 41.8317 744.966 42.5117 743.606 42.9917C742.273 43.4717 740.486 43.7117 738.246 43.7117ZM753.321 43.5117L752.481 14.2317H758.081L758.921 43.5117H753.321Z" fill="#211C4D"/>
<g clip-path="url(#clip0_1642_29792)">
<path d="M815.575 72.8559C815.886 73.0003 815.633 73.2435 815.655 73.3245C815.181 72.9765 815.622 72.7837 815.575 72.8559Z" fill="#F3AC5D"/>
<path d="M810.737 69.4513L810.777 69.6317L810.129 68.9332L810.737 69.4513Z" fill="#F3AC5D"/>
<path d="M805.771 67.1355C806.461 66.7991 807.554 68.0538 808.502 68.2761L808.687 68.2028L808.912 68.8281C807.91 68.1652 806.859 67.5988 805.771 67.1355Z" fill="#F3AC5D"/>
<path d="M802.665 67.0701C802.92 66.9687 802.151 66.6129 803.314 67.295C803.27 67.2909 803.227 67.2903 803.183 67.2932C803.014 67.2095 802.841 67.135 802.665 67.0701Z" fill="#F3AC5D"/>
<path d="M803.183 67.2956C802.765 67.3096 803.707 67.5523 803.183 67.2956V67.2956Z" fill="#F3AC5D"/>
<path d="M800.783 66.0139L801.408 66.534C801.224 66.6072 800.576 66.3192 800.777 66.5164C800.109 66.1027 800.294 66.0294 800.783 66.0139Z" fill="#F3AC5D"/>
<path d="M800.274 65.2967L800.601 65.5509C800.52 65.5742 800.415 65.5533 800.274 65.2967Z" fill="#F3AC5D"/>
<path d="M801.295 66.0884L800.592 65.5544C800.72 65.5037 800.808 65.3437 800.917 65.7826C800.929 65.5903 801.02 65.822 801.295 66.0884Z" fill="#F3AC5D"/>
<path d="M801.772 66.2103C802.203 66.2805 802.74 66.4425 802.108 65.9253C803.416 66.6299 803.076 66.9255 801.772 66.2103Z" fill="#F3AC5D"/>
<path d="M805.726 66.4461L806.301 66.5309L806.682 66.9154C806.492 66.7232 805.625 66.5934 805.726 66.4461Z" fill="#F3AC5D"/>
<path d="M796.306 64.0389C796.314 63.9019 796.683 63.8896 796.787 63.7501L797.249 64.1561C796.955 64.1033 796.449 63.8931 796.306 64.0389Z" fill="#F3AC5D"/>
<path d="M796.791 63.7654L796.106 63.1442C796.802 63.5022 796.892 63.6629 796.791 63.7654Z" fill="#F3AC5D"/>
<path d="M800.384 64.6349L801.482 65.6554L800.144 64.5071L800.384 64.6349Z" fill="#F3AC5D"/>
<path d="M793.383 62.3591C793.453 62.5545 793.589 62.706 793.692 62.8795C793.494 62.6007 793.301 62.3113 793.114 62.0191L793.383 62.3591Z" fill="#F3AC5D"/>
<path d="M791.494 61.0636C791.694 61.4844 790.871 61.1142 791.128 61.4678C790.699 61.0808 790.322 60.628 790.012 60.1243C790.429 60.566 790.939 60.8891 791.494 61.0636Z" fill="#F3AC5D"/>
<path d="M789.496 59.4059C789.68 59.6239 789.85 59.8548 790.005 60.0971C789.81 59.89 789.639 59.6577 789.496 59.4059Z" fill="#F3AC5D"/>
<path d="M794.795 62.4584C794.675 62.5075 794.546 62.5292 794.417 62.5222C794.287 62.5152 794.16 62.4797 794.042 62.4178L794.482 62.2431L794.795 62.4584Z" fill="#F3AC5D"/>
<path d="M794.875 62.4977L794.798 62.457C794.839 62.4406 794.863 62.4403 794.875 62.4977Z" fill="#F3AC5D"/>
<path d="M798.259 63.9156C797.88 63.4941 797.046 62.7978 798.056 63.0136C798.279 63.4075 797.698 63.2806 798.259 63.9156Z" fill="#F3AC5D"/>
<path d="M795.426 62.3355L796.264 62.7264C796.21 62.8014 796.001 62.8306 796.187 63.0519C795.933 62.8219 795.679 62.5656 795.426 62.3355Z" fill="#F3AC5D"/>
<path d="M795.085 61.9963L795.431 62.3237L795.119 62.1796L795.085 61.9963Z" fill="#F3AC5D"/>
<path d="M791.029 60.1104C790.736 59.7328 790.395 59.4016 790.018 59.1271C790.491 59.4009 790.952 59.7013 791.397 60.0271C791.361 60.1753 791.456 60.4858 791.029 60.1104Z" fill="#F3AC5D"/>
<path d="M792.705 61.1868L792.636 61.125C792.699 61.1266 792.738 61.1469 792.705 61.1868Z" fill="#F3AC5D"/>
<path d="M786.18 55.7187L786.274 55.7352L786.253 55.7881L786.18 55.7187Z" fill="#F3AC5D"/>
<path d="M791.468 60.0372C791.741 60.1726 791.974 60.3903 792.139 60.6639L791.375 60.0739C791.358 59.9822 791.371 59.9503 791.468 60.0372Z" fill="#F3AC5D"/>
<path d="M788.483 58.3546C788.693 58.4411 788.918 58.5483 789.149 58.671C788.929 58.6242 788.494 58.4753 788.483 58.3546Z" fill="#F3AC5D"/>
<path d="M792.463 61.0973L792.486 61.1598C792.367 61.1355 792.401 61.1218 792.463 61.0973Z" fill="#F3AC5D"/>
<path d="M792.465 61.0972C792.336 60.9503 792.221 60.7893 792.122 60.6169C792.3 60.7643 792.468 60.9243 792.627 61.0956C792.573 61.0883 792.519 61.0888 792.465 61.0972Z" fill="#F3AC5D"/>
<path d="M786.64 53.021C786.465 53.2781 786.934 54.3335 787.826 54.694C788.302 55.4968 787.252 55.8953 786.277 55.7368C786.36 55.6058 786.399 55.5548 785.898 54.6816C786.211 54.8522 787.63 55.8879 787.249 55.1195C786.467 54.1433 786.476 54.4613 785.952 54.1331C786.549 54.2358 785.318 52.5271 785.916 52.3615L786.469 53.3121C786.54 53.2393 786.392 52.8513 786.64 53.021Z" fill="#F3AC5D"/>
<path d="M787.611 57.01C787.698 57.1181 787.783 57.2185 787.875 57.316C787.483 57.041 787.059 56.8272 786.616 56.6811C786.24 56.0887 786.228 55.9418 786.292 55.7823L787.718 57.1281L787.611 57.01Z" fill="#F3AC5D"/>
<path d="M789.221 58.4614C789.177 57.9787 788.561 57.2585 789.209 57.3229C790.054 58.0687 789.625 58.051 790.091 58.6253C788.72 57.3832 790.39 59.1408 789.218 58.4536C789.438 58.715 789.683 58.9502 789.949 59.155L789.114 58.6826L789.149 58.6685C789.234 58.6794 789.268 58.6837 789.192 58.6516C789.204 58.5985 789.206 58.543 789.198 58.4883C788.746 58.203 789.092 58.5306 789.192 58.6516C789.192 58.6516 789.192 58.6516 789.209 58.6985L787.905 57.331C788.369 57.6716 788.808 58.0495 789.221 58.4614Z" fill="#F3AC5D"/>
<path d="M797.53 61.8854C797.514 61.8814 797.497 61.8825 797.482 61.8885C797.467 61.8945 797.454 61.9052 797.444 61.9193C797.336 61.846 797.322 61.8069 797.53 61.8854Z" fill="#F3AC5D"/>
<path d="M796.817 61.7358C796.929 61.9447 797.108 62.1031 797.318 62.1803C797.676 62.2524 797.385 62.0286 797.448 61.9323C797.627 62.1379 798.112 62.5618 797.358 62.3607L797.271 62.2525C796.596 62.0467 795.626 61.9671 795.713 62.0752C796.049 61.8689 796.427 61.7527 796.817 61.7358Z" fill="#F3AC5D"/>
<path d="M792.999 60.1949C792.606 59.8686 792.235 59.6048 791.834 59.2104C792.088 59.2839 792.345 59.343 792.604 59.3873L792.483 59.5247C793.226 59.8996 792.97 60.001 792.999 60.1949Z" fill="#F3AC5D"/>
<path d="M785.94 55.7265L785.852 56.1367C785.737 55.7905 785.641 55.4383 785.562 55.0817C785.678 55.3033 785.804 55.5185 785.94 55.7265Z" fill="#F3AC5D"/>
<path d="M784.598 54.117L784.428 54.39L784.207 53.8435L784.598 54.117Z" fill="#F3AC5D"/>
<path d="M782.093 53.0724L781.758 53.3125C781.865 53.2247 781.976 53.1445 782.093 53.0724Z" fill="#F3AC5D"/>
<path d="M784 50.7881L784.155 50.8339C784.01 50.8826 783.93 50.8874 784 50.7881Z" fill="#F3AC5D"/>
<path d="M782.379 5.26172C782.61 4.43769 783.085 3.41001 783.224 3.77455C783.229 3.92432 783.234 4.0741 783.247 4.22106C782.883 4.48512 782.586 4.84194 782.379 5.26172Z" fill="#F3AC5D"/>
<path d="M795.738 28.7109L795.665 28.5077L796.035 28.1379L795.738 28.7109Z" fill="#F3AC5D"/>
<path d="M794.324 28.863C794.369 29.149 794.394 29.4377 794.398 29.7266C794.377 29.5298 794.348 29.2465 794.324 28.863Z" fill="#F3AC5D"/>
<path d="M769.543 62.7547L768.975 62.6405C769.61 62.3085 769.413 62.6186 769.543 62.7547Z" fill="#F3AC5D"/>
<path d="M777.422 34.0977C777.283 33.6183 777.188 33.1265 777.138 32.6295C777.348 33.3499 777.689 33.9115 777.422 34.0977Z" fill="#F3AC5D"/>
<path d="M785.487 54.8529C785.265 55.0033 785.142 55.0433 785.103 55.0048C785.318 54.8126 785.464 54.7457 785.487 54.8529Z" fill="#F3AC5D"/>
<path d="M777.115 30.9326C777.151 31.0342 777.185 31.128 777.221 31.2296C777.158 31.6871 777.14 32.1523 777.168 32.6171C776.963 32.0749 776.944 31.4763 777.115 30.9326Z" fill="#F3AC5D"/>
<path d="M714.662 59.9225L714.527 59.8867C714.527 59.8867 714.622 59.8131 714.662 59.9225Z" fill="#F3AC5D"/>
<path d="M699.113 50.8981C699.264 51.11 699.429 51.3104 699.605 51.4977C699.413 51.3278 699.246 51.1252 699.113 50.8981Z" fill="#F3AC5D"/>
<path d="M782.117 48.2305C782.086 48.1445 782.122 48.0409 782.188 47.997C782.161 48.0277 782.141 48.0644 782.129 48.1047C782.117 48.145 782.113 48.1878 782.117 48.2305Z" fill="#F3AC5D"/>
<path d="M779.3 26.8063C779.356 26.9017 779.348 26.8779 779.3 26.8063V26.8063Z" fill="#F3AC5D"/>
<path d="M780.466 47.4758C780.342 47.3271 780.229 47.1693 780.125 47.0037C780.247 47.1539 780.361 47.3115 780.466 47.4758Z" fill="#F3AC5D"/>
<path d="M780.285 47.4678L780.479 47.8106C780.46 47.8895 780.409 47.8562 780.285 47.4678Z" fill="#F3AC5D"/>
<path d="M779.824 46.3278C779.909 46.5602 780.009 46.7863 780.122 47.0043C780.091 46.9184 780.039 46.9035 780.04 46.9296L779.824 46.3278Z" fill="#F3AC5D"/>
<path d="M744.174 70.0009C744.144 70.0082 744.115 70.0196 744.088 70.0347C743.708 69.882 743.878 69.9036 744.174 70.0009Z" fill="#F3AC5D"/>
<path d="M791.919 9.42386C791.959 9.19369 791.931 8.95376 791.84 8.73712C791.749 8.52048 791.599 8.33781 791.411 8.21427C791.738 8.08469 792.068 8.00764 792.401 7.91995C792.271 8.43319 792.11 8.93557 791.919 9.42386Z" fill="#F3AC5D"/>
<path d="M776.977 57.9156L777.482 57.0633C776.288 57.3761 775.773 58.0446 776.185 57.1132C776.558 57.5189 777.291 56.9605 778.004 56.3921C778.716 55.8236 779.373 55.1436 779.776 55.5196L780.08 54.8988C779.949 55.0311 779.881 54.9776 779.769 55.1384C780.307 53.8802 780.966 55.1279 781.94 53.7952C782.254 53.3135 782.431 52.9038 782.062 53.095L783.083 52.3685C783.312 52.0811 783.115 52.0074 782.893 52.292C783.354 51.8591 783.739 51.3492 784.161 50.8963C784.555 50.7378 784.936 50.5448 785.301 50.3192C785.481 49.8279 785.052 50.4178 785.038 50.2446L785.893 49.5751C785.949 49.0529 785.193 49.5673 784.776 50.17C784.56 48.666 785.561 49.6891 786.247 47.4881L785.589 48.2313C785.472 47.2955 786.072 46.7984 786.385 45.6382C786.407 45.969 785.901 48.1073 786.734 47.2859C786.904 46.8326 787.202 46.4525 787.585 46.1983C787.284 45.9696 787.656 45.4916 788.055 44.842L787.615 44.588C788.136 43.9615 788.28 44.1812 788.745 43.8718C788.901 43.6482 788.985 43.374 788.985 43.0895C788.985 42.8049 788.901 42.5251 788.745 42.2911C789.302 40.9273 788.833 43.5512 789.671 42.0222C789.832 41.4692 790.069 40.9479 790.373 40.4756C790.523 40.2376 790.693 40.0096 790.878 39.7575L791.389 38.9209C791.554 38.0249 791.065 38.9241 791.05 38.5642L791.67 38.0324C791.733 37.8466 791.605 37.8526 791.533 37.8545C791.907 37.3134 792.001 38.0263 792.501 37.1137C793.156 37.0859 792.409 34.7833 793.369 33.7954C793.325 33.4468 793.035 33.8384 792.883 33.6846C793.161 33.23 793.414 32.757 793.64 32.2681C793.801 31.972 793.967 31.7099 794.389 31.0781L794.338 29.7854C794.493 30.7597 795.221 29.7569 795.678 28.7718C795.81 29.1391 795.925 29.4596 795.998 29.6628L796.522 27.9816C796.446 27.7705 796.281 27.8985 796.053 28.1675C796.11 28.0555 796.163 27.9542 796.21 27.882C796.113 27.2507 795.793 27.5116 795.464 27.8832L795.697 28.5319C795.343 28.8779 794.971 29.177 794.701 29.0342C794.797 28.8813 794.864 28.709 794.9 28.5266C794.81 28.6158 794.731 28.6652 794.687 28.6111C794.643 28.557 794.773 28.3985 794.93 28.1576L794.442 27.6813L794.655 27.5968C794.63 26.8742 794.65 26.1609 794.577 25.4396C794.889 24.7265 795.26 24.0434 795.606 23.2453C795.795 22.8155 795.943 22.3649 796.048 21.9003C796.157 21.3456 796.226 20.7809 796.253 20.2117C795.886 20.8394 795.612 20.3495 795.141 20.3935C795.671 21.0765 795.01 22.2853 795.024 23.521C795.008 22.8666 794.777 22.9936 794.689 23.1538C794.777 22.7885 794.881 22.4254 794.966 22.0524L795.145 20.9457C794.763 20.9899 794.836 20.4699 794.659 19.8881C795.429 20.3149 795.149 18.2025 795.196 17.2728C794.924 17.2379 794.699 17.47 794.895 18.58C794.18 17.4258 795.586 16.9128 794.943 15.7567C794.976 16.0293 795.034 16.1672 794.917 16.2939C794.974 15.8628 794.945 15.4205 794.832 14.9969C794.739 14.5786 794.59 14.3247 794.492 14.5246L794.576 14.759C794.387 13.9408 794.05 12.6636 793.715 11.5731C793.379 10.4826 793.092 9.56962 793.308 9.26935C793.068 9.49973 792.854 9.76141 792.671 10.0488C792.867 8.72743 792.839 7.37079 792.587 6.0455C792.488 6.3795 792.027 6.5626 791.685 6.87668C791.497 7.01113 791.367 7.22081 791.32 7.46207C791.274 7.70333 791.316 7.9576 791.436 8.17194C791.268 8.04726 791.109 7.90712 790.961 7.75312C790.752 7.55041 790.561 7.3274 790.389 7.08701C790.613 7.12319 791.347 6.84085 791.124 6.53638C790.816 6.52176 790.509 6.48238 790.205 6.41855C789.892 6.35918 789.575 6.34982 789.262 6.39079C789.424 6.38916 789.52 6.13678 789.487 5.86413C789.481 5.70577 789.428 5.5522 789.334 5.42755C789.241 5.3029 789.113 5.21423 788.971 5.17548C789.027 5.3318 788.754 6.0833 788.905 6.21082C788.738 6.00445 788.56 5.80971 788.371 5.62786C788.152 5.45303 787.924 5.29302 787.687 5.14878C788.055 5.3153 787.777 5.91703 787.575 6.23793C787.624 6.14722 787.373 6.14857 787.086 6.25344C786.799 6.3583 786.475 6.49571 786.326 6.55486C786.437 6.41255 786.571 6.28805 786.696 6.14009C786.225 6.38032 785.7 6.47767 785.174 6.42212C784.858 6.40626 784.545 6.48122 784.269 6.63947C783.992 6.79772 783.761 7.03367 783.599 7.3236C783.876 7.21374 784.754 7.62457 784.414 8.39361C783.827 8.44374 783.255 8.59828 782.72 8.85112C781.917 9.20624 781.244 9.82904 780.795 10.6323L780.947 11.0544C780.738 11.4676 780.53 11.8807 780.334 12.3067C780.752 11.98 781.44 11.3413 782.162 10.7331C782.885 10.125 783.639 9.55806 784.119 9.19828C784.038 9.89998 784.301 9.5012 783.926 10.4C784.019 10.8184 784.435 10.0552 784.535 9.83694C784.287 10.5453 784.085 11.273 783.93 12.0147C783.456 11.7116 782.975 13.6258 782.599 13.4358C782.948 12.6182 783.343 11.8261 783.783 11.0639C783.558 10.912 783.098 11.1214 782.652 11.6197C782.127 12.2217 781.777 12.9804 781.644 13.8055C781.754 14.3154 782.605 13.7013 782.762 13.7997C782.433 14.3338 782.234 14.9528 782.184 15.6007L782.603 14.9164C782.595 15.9555 781.616 16.3705 781.888 17.6915C781.84 18.1215 782.324 19.0818 782.017 19.0873C781.549 18.2817 779.788 17.7205 779.281 18.0915C779.343 19.0684 779.486 20.04 779.708 20.9943C780.06 21.7478 780.926 20.1627 781.269 20.8218C781.131 20.8227 780.907 21.1705 780.83 21.3172C780.892 21.7837 781.282 21.2185 781.128 22.1457C780.586 22.2179 780.923 24.1026 780.63 22.5218C780.36 23.4415 780.631 23.5396 780.491 24.64C780.19 24.2324 779.248 25.4722 779.05 26.4348C779.178 26.3841 779.337 26.6245 779.411 26.7383C779.389 27.5636 779.416 28.3913 779.49 29.2163C779.52 29.9545 779.6 30.6731 779.612 31.588C779.74 31.7608 779.9 32.6351 780.128 32.2766C779.971 32.602 779.893 32.9676 779.902 33.3399C780.414 34.4047 779.902 32.0985 780.493 32.9087C780.202 32.9795 780.136 34.3541 780.037 35.1615C779.514 34.9491 779.828 33.3155 779.954 32.5153C779.638 32.5157 779.324 32.8632 779.072 33.4721C778.767 34.2454 778.604 35.0803 778.593 35.9307C778.603 37.5163 779.082 36.5675 779.018 36.8426C779.221 37.7362 779.208 38.6647 778.98 39.5368C778.81 40.3168 778.928 41.1479 779.31 41.8531C779.968 42.6905 780.063 41.6886 780.445 41.8048C780.302 40.5488 779.728 39.9905 779.59 39.1341C779.711 39.4702 779.835 39.8141 779.996 40.1255C780.033 39.552 779.96 38.9727 779.782 38.4242C779.962 38.758 780.092 39.1196 780.167 39.495C780.344 39.9875 780.471 40.6337 780.633 41.3106C780.957 42.6265 781.443 43.894 782.077 45.0783C782.088 45.4935 782.208 46.1873 781.94 45.9629L781.744 45.2817C781.198 44.8016 781.807 46.7213 781.34 45.9419C781.406 46.4784 781.515 47.0089 781.667 47.5271C781.819 48.1455 782.098 48.7221 782.484 49.2125L783.009 49.1829C782.827 49.0775 782.667 48.9302 782.541 48.7517C782.415 48.5731 782.326 48.3677 782.28 48.1501C782.346 48.7848 783.843 49.5844 783.637 50.4787L782.887 49.8383C783.114 51.0175 783.612 52.1233 784.335 53.051C783.649 52.9033 784.236 52.7774 783.293 52.4104C783.781 52.5027 783.313 51.8575 782.88 51.2614C782.446 50.6653 782.149 50.0419 782.769 50.4122C781.8 49.9748 781.708 49.2434 780.74 48.4036C780.889 48.3445 781.192 48.6442 780.657 47.722C780.681 47.6353 780.689 47.5442 780.682 47.4531L780.657 47.3827L780.677 47.4375C780.66 47.3906 780.66 47.3906 780.677 47.4375C780.795 47.5971 780.947 47.724 781.118 47.8072C781.104 47.3377 781.008 46.8727 780.836 46.4365C780.698 45.9925 780.594 45.5377 780.526 45.077C780.233 44.5324 780.45 45.3841 780.181 45.1334L780.134 44.2589C779.794 44.3047 779.118 42.8759 779.357 44.353L778.957 43.0827C778.522 42.3666 778.265 41.5441 778.213 40.6984C777.994 40.0888 778.261 39.0718 778.1 39.6625L777.964 37.591L777.893 37.6192C777.581 35.5997 778.024 33.4682 777.371 31.1999C777.428 30.3903 777.412 29.5741 777.322 28.7631L777.035 28.5287C777.142 27.6738 776.902 25.9022 777.203 25.5866C776.824 25.0758 776.895 24.0298 777.056 22.9209C777.217 21.8121 777.497 20.6922 777.523 19.9314L777.913 19.9554C778.078 18.876 778.334 17.8182 778.677 16.795L779.001 16.9522C779.453 15.9514 779.252 14.1735 779.652 12.4877C779.496 12.5496 779.43 13.0221 779.453 13.3345C779.363 12.1997 779.611 11.0748 780.158 10.1257C780.698 9.19393 781.127 8.18974 781.437 7.13591C781.718 6.82845 781.933 6.45685 782.068 6.04625L781.981 6.14321L782.1 5.95337C782.179 5.70395 782.277 5.46221 782.392 5.23032C782.307 5.46924 782.238 5.68409 782.165 5.86485C782.488 5.4066 782.876 5.00854 783.316 4.68524L783.259 4.18965L783.394 4.13613C783.809 3.59657 783.877 3.94457 783.809 4.40925C784.047 4.2644 784.306 4.16175 784.576 4.10501C784.613 3.6885 785.005 3.51511 785.424 3.39362C785.85 3.33393 786.239 3.11344 786.523 2.77031C786.774 2.90311 787.556 2.79835 788.318 2.95189C789.079 3.10543 789.771 3.51853 789.794 3.92033C789.838 3.84026 790 3.83864 789.729 3.74056C790.346 3.8346 790.92 4.1557 791.355 4.64983L791.836 4.40575C792.094 4.87249 792.313 5.36228 792.492 5.86919C793.234 6.26257 793.603 6.45535 793.301 5.54805C793.806 6.5447 793.951 6.92487 794.137 7.26187C794.37 7.74785 794.53 8.26951 794.611 8.80637L794.829 8.57709C795.122 9.12167 795.147 10.1836 795.489 10.4139C796 10.908 796.639 12.5034 796.988 14.4457C797.337 16.388 797.607 18.4244 797.852 20.1222C796.938 19.4756 798.322 21.7221 797.65 21.8187C797.868 22.0181 798.008 22.4983 798.169 21.9523C797.935 23.6706 798.39 24.5975 797.752 25.69C797.954 25.9135 798.078 25.3553 798.178 25.521C798.126 25.6486 797.978 26.047 798.079 26.239C798.181 26.4309 798.283 26.0153 798.38 25.7445C798.207 27.5191 797.463 27.5728 796.86 27.5887C796.967 27.9192 796.986 28.2734 796.914 28.6092C796.842 28.9449 796.682 29.2481 796.453 29.4825C796.58 29.8342 796.773 30.3735 796.943 29.2881C796.938 29.9063 796.466 32.9959 795.996 32.9057C796.077 33.1324 795.857 33.7378 795.751 33.8958C795.403 35.1858 795.403 35.3199 794.973 36.5621L795.007 36.1825C794.296 36.4642 794.558 37.1911 794.083 38.1293L794.14 38.1068C793.649 40.5341 793.643 38.9825 793.125 41.4026L792.847 41.1022C792.045 40.9024 792.374 43.2187 791.509 44.3119C791.527 44.1352 791.532 43.9457 791.544 43.7534C791.045 44.353 791.501 46.2978 791.189 47.0108C791.167 47.1981 791.415 46.8497 791.573 46.6799C790.977 48.7022 791.032 46.6178 790.209 47.8283C790.281 48.2104 790.966 47.9477 790.456 48.8106C790.122 49.3219 789.707 49.7643 789.23 50.1185C788.619 50.6359 788.125 51.2984 787.785 52.0581C787.812 51.6813 787.827 51.3179 787.298 51.7421C786.929 52.2705 786.612 52.8392 786.35 53.4398C786.206 53.737 786.034 54.0172 785.839 54.2764C785.646 54.4974 785.396 54.6494 785.119 54.7135C785.073 54.8568 785.075 54.9277 785.113 54.9662C784.467 55.4277 783.225 56.6701 782.661 56.7245C782.851 57.4795 781.864 58.2104 780.982 58.828C780.1 59.4456 779.163 59.9331 779.552 60.4489L777.654 61.9427L777.773 62.0027C777.129 62.6473 776.297 63.0305 775.412 63.0906C775.17 63.3652 775.438 63.3213 775.505 63.3485C775.089 63.7276 774.766 64.0255 774.48 64.246C774.225 64.4273 773.956 64.5848 773.676 64.7169C773.047 64.9835 772.39 65.1719 771.718 65.2787L771.739 65.7436C771.233 65.8017 769.252 67.8553 767.068 68.2836C767.068 68.2836 767.174 68.3755 767.347 68.3604C766.725 68.5355 766.121 68.7751 765.543 69.0759C764.945 69.3757 764.355 69.7437 763.776 70.0088C762.638 70.5674 761.628 70.9411 760.997 70.316L759.396 70.3792C761.32 69.7236 758.948 69.8334 759.691 69.3694C758.933 69.5182 757.81 70.3026 758.777 70.1693L758.909 70.0632C759.446 70.7434 756.521 70.894 756.68 71.4027C752.857 72.2638 748.963 72.7623 745.04 72.8926L745.457 72.2899L744.148 72.3086C743.807 72.4438 743.684 72.7784 744.631 72.7693C744.131 73.1191 743.048 72.4322 743.022 72.2909C741.181 72.4314 743.739 73.0426 743.172 73.026L742.402 72.9384L742.573 72.8708C742.039 72.4815 741.415 72.2717 740.781 72.2683C740.066 72.3108 740.397 72.5993 740.091 72.6047C740.091 72.6047 739.991 72.6442 739.66 72.5793C739.106 72.5307 738.547 72.5112 737.986 72.4392L738.662 72.0637C737.943 71.7329 737.114 71.8652 737.92 71.4652C737.332 71.7963 735.785 71.6687 734.31 71.3603C732.836 71.052 731.445 70.6389 731.079 70.7037C730.088 70.1316 729.027 69.7241 727.934 69.4952C728.26 69.4997 728.576 69.0259 727.51 68.7699C727.628 69.9556 725.49 68.6153 724.436 69.0244C724.892 68.9151 724.157 68.6083 723.498 68.289C722.839 67.9697 722.258 67.5037 722.965 67.4378C722.058 67.1724 722.783 67.8134 722.063 67.7956C720.171 66.554 717.536 66.0185 715.193 64.4916C715.219 64.3384 715.704 64.3782 715.29 63.8815L713.72 63.7808C713.287 63.4345 713.669 62.7827 712.601 62.6793C712.778 62.6536 713.037 62.6047 712.75 62.3703C711.528 61.7587 710.357 61.027 709.253 60.1848C708.138 59.341 707.068 58.4434 706.034 57.4869C703.98 55.5311 701.84 53.6853 699.622 51.9565C700.32 52.3405 699.995 51.9335 699.618 51.4937C699.915 51.7331 699.844 51.2431 700.026 51.1621C699.371 50.7164 698.772 50.2035 698.138 49.7047C698.194 49.3614 697.79 48.8697 697.431 48.3689C697.072 47.8681 696.722 47.3908 696.832 47.1328L697.209 47.7961C697.069 46.6189 698.993 48.0622 699.503 47.4044C699.596 48.0463 700.224 48.44 700.854 48.9047C701.23 49.1011 701.568 49.3771 701.848 49.716C702.127 50.0548 702.342 50.4496 702.48 50.8765C702.837 51.0565 702.425 50.4519 702.68 50.4847C702.748 51.0562 703.046 51.5008 703.872 52.0839L703.824 51.951C705.717 53.9868 706.805 54.5289 709.279 56.3074L708.881 56.4652C709.199 56.6853 709.546 56.8493 709.908 56.951C710.2 57.898 708.434 55.83 708.622 56.7824C709.19 56.7359 710.094 57.4669 711.011 58.1213C711.928 58.7757 712.835 59.3804 713.294 59.1447C714.144 59.701 712.84 59.3697 713.675 59.8869L714.01 59.8255L714.084 60.2338C714.66 60.55 715.076 60.4655 715.186 60.2969C715.012 60.1792 714.849 60.0434 714.699 59.8915C715.53 60.1248 716.705 61.2037 716.994 61.2855L716.105 60.9328C718.355 62.541 721.428 63.7515 723.703 65.1802L723.462 65.276C723.973 65.6444 724.548 65.8888 725.148 65.9917C725.792 66.1125 726.425 66.3111 727.033 66.5838L726.966 66.5119C727.412 66.8698 727.916 67.1284 728.449 67.2724C727.971 66.8905 729.529 67.1835 728.895 66.7294C730.878 67.7292 729.85 67.3065 731.106 68.3623L731.481 68.142C731.885 68.5995 732.411 68.9053 732.979 69.0126C732.144 68.5401 733.732 68.714 732.826 68.1803C733.718 68.1425 734.612 68.3183 735.446 68.6952C736.102 68.9619 736.622 69.1218 737.191 68.7176C738.139 69.7263 735.197 68.8832 735.726 69.1559C735.214 69.3588 736.507 69.9533 737.23 69.9527C737.952 69.9521 738.541 69.0845 740.359 69.2654C740.182 69.2464 740.176 69.1861 739.992 69.1699C740.678 69.023 741.304 69.614 742.145 69.2894C742.6 69.8324 743.222 69.3268 743.355 69.9887L741.653 69.7705C742.591 69.9878 743.479 70.8323 745.056 70.4752C744.775 70.2806 744.466 70.1401 744.143 70.06C744.598 69.8797 745.006 70.2004 745.496 70.006C745.346 69.3419 743.462 69.857 742.461 69.2627C742.965 69.0627 744.364 69.8386 743.856 69.1024C744.595 70.0061 745.628 69.0426 746.869 69.6937L746.769 69.3045C747.081 69.4289 747.408 69.4985 747.736 69.5104L747.064 69.0179C748.073 69.4306 748.929 68.5822 749.88 68.7229C747.919 68.8665 749.481 69.2383 748.665 69.5886C751.162 69.8937 749.98 68.5046 752.682 68.344C752.312 68.3301 751.343 68.7501 751.943 68.8606C752.452 68.7357 752.937 68.5223 753.379 68.2284C755.161 68.0132 753.178 68.6834 753.963 68.7916C754.495 68.2148 754.871 68.8335 755.686 68.8409L755.618 68.4482C757.584 67.7758 756.327 69.1581 758.055 68.4551L757.167 68.084L758.139 68.011L757.841 67.6112C758.657 67.6933 759.471 67.5166 760.182 67.1025C760.025 67.4328 760.512 67.7934 761.394 67.5151C761.921 67.083 760.954 67.261 762.204 66.8994C762.017 66.7655 761.793 66.7107 761.576 66.7456C761.359 66.7805 761.164 66.9026 761.03 67.0881C760.942 66.9799 760.687 66.9472 760.596 66.8312C761.217 66.4586 761.897 66.2101 762.605 66.0972C762.443 66.1499 762.292 66.234 762.159 66.3456C762.803 66.3313 763.453 66.2879 764.094 66.221C764.321 65.9705 764.059 65.9406 763.806 65.9156C764.211 65.8757 764.614 65.8115 765.011 65.7235C764.76 65.475 764.673 65.1433 763.892 65.2743C764.478 65.1668 765.086 65.0956 765.655 64.9412C765.714 64.7661 766.34 64.2052 766.091 64.1881C766.906 63.6327 768.504 63.7221 769.556 62.8765C769.727 62.8947 769.897 62.861 770.049 62.7794C770.562 62.424 771 62.0179 771.494 61.6525C772.034 61.2624 772.622 60.9541 773.242 60.7359L773.613 59.7583C774.614 59.2007 773.081 61.0321 774.759 60.099C775.97 59.4491 774.902 59.3904 775.171 58.9888C776.231 58.8402 777.183 58.2417 777.819 57.3227C777.524 57.4957 777.242 57.6939 776.977 57.9156ZM786.744 47.2909C786.519 47.4783 786.013 47.7862 786.073 48.1107C786.592 48.1102 786.587 47.7553 786.744 47.2909ZM795.349 26.3214C795.277 26.4653 795.234 26.6256 795.225 26.7911C795.216 26.9567 795.24 27.1235 795.296 27.2801C795.369 26.9662 795.386 26.6382 795.346 26.3135L795.349 26.3214ZM778.719 42.15C778.422 41.4372 778.53 41.6711 778.716 42.1422L778.719 42.15ZM779.304 43.5522C779.298 43.7154 779.252 43.7245 779.18 43.6817C779.198 43.3968 779.137 43.11 779.006 42.8578C779.163 42.9116 779.239 43.1226 779.301 43.5444L779.304 43.5522ZM739.957 72.4347L740.212 72.3333C739.641 72.1668 739.8 72.2915 739.954 72.4269L739.957 72.4347Z" fill="#F3AC5D"/>
<path d="M794.493 28.8383C794.534 28.9134 794.595 28.9733 794.668 29.0098C794.591 29.1119 794.491 29.1067 794.493 28.8383Z" fill="#F3AC5D"/>
<path d="M769.65 62.7754L769.608 62.792C769.583 62.7845 769.561 62.7684 769.544 62.7461L769.65 62.7754Z" fill="#F3AC5D"/>
<path d="M781.309 21.4648C781.308 21.2635 781.267 21.0634 781.187 20.8788C781.277 20.879 781.338 21.0247 781.309 21.4648Z" fill="#F3AC5D"/>
<path d="M782.089 51.181L781.667 50.2769C781.801 50.5418 781.987 50.773 782.211 50.954C782.131 51.0035 781.936 50.9115 782.089 51.181Z" fill="#F3AC5D"/>
<path d="M788.913 55.7538C788.961 55.8867 789.115 55.9327 789.184 56.0571L789.048 56.1737C788.627 55.8138 788.471 55.4024 788.913 55.7538Z" fill="#F3AC5D"/>
<path d="M783.568 51.1831C783.866 51.0649 784.113 51.5924 784.445 52.157C784.436 52.122 784.424 52.088 784.409 52.0554C784.16 52.5115 783.855 51.8462 783.568 51.1831Z" fill="#F3AC5D"/>
<path d="M784.528 52.2968C784.63 52.4685 784.744 52.6325 784.867 52.7875C784.787 52.9712 784.685 52.5741 784.528 52.2968Z" fill="#F3AC5D"/>
<path d="M779.732 45.4361C779.927 45.7072 779.443 45.7828 779.626 45.9069C779.387 46.3943 779.287 43.7016 779.732 45.4361Z" fill="#F3AC5D"/>
<path d="M784.682 50.9675L784.249 51.0234L784.287 50.5438L784.682 50.9675Z" fill="#F3AC5D"/>
<path d="M781.954 46.7611L782.496 47.6356C782.432 47.661 782.453 47.7867 782.495 47.9487C782.21 47.3829 781.841 46.7878 781.954 46.7611Z" fill="#F3AC5D"/>
<path d="M782.492 47.9473C782.626 48.1887 782.739 48.4433 782.828 48.7071C782.687 48.47 782.574 48.2145 782.492 47.9473Z" fill="#F3AC5D"/>
<path d="M784.008 49.7486L783.787 49.5413L783.409 48.941L784.008 49.7486Z" fill="#F3AC5D"/>
<path d="M779.045 36.0542L779.036 34.9237C779.152 34.7971 779.262 35.1019 779.249 35.5177C779.207 35.8291 779.204 36.2499 779.045 36.0542Z" fill="#F3AC5D"/>
<path d="M780.579 39.2589C780.501 39.0827 780.374 38.936 780.217 38.8396L780.677 38.7199L780.579 39.2589Z" fill="#F3AC5D"/>
<path d="M780.219 36.0988C780.343 35.9693 780.452 34.4883 780.548 35.8613C780.428 35.9802 780.435 37.0846 780.219 36.0988Z" fill="#F3AC5D"/>
<path d="M780.262 19.5301L780.213 19.7996L779.452 19.6014L780.262 19.5301Z" fill="#F3AC5D"/>
<path d="M785.863 7.59428C785.638 7.96053 785.52 7.92681 785.404 7.87463C785.288 7.82246 785.176 7.75965 785.02 8.20561C784.723 8.26076 785.297 7.48819 785.04 7.56334C785.571 7.25482 785.729 6.99553 785.863 7.59428Z" fill="#F3AC5D"/>
<path d="M785.04 7.56154L784.742 7.67969C784.837 7.62762 784.937 7.58795 785.04 7.56154Z" fill="#F3AC5D"/>
<path d="M696.83 48.7326L696.194 48.1364L696.724 48.4172L696.83 48.7326Z" fill="#F3AC5D"/>
<path d="M696.295 47.0127L695.791 47.1679L695.837 46.4619C695.933 46.6382 696.123 46.9646 696.295 47.0127Z" fill="#F3AC5D"/>
<path d="M787.074 44.8208L787.203 44.8411C787.268 45.0209 787.168 45.1944 787.004 45.5273L787.074 44.8208Z" fill="#F3AC5D"/>
<path d="M781.102 53.4217L781.214 53.2792L781.309 53.8843L781.102 53.4217Z" fill="#F3AC5D"/>
<path d="M774.336 58.7137C774.655 58.5293 774.964 58.3263 775.262 58.1054C774.621 58.5116 774.581 59.2595 774.336 58.7137Z" fill="#F3AC5D"/>
</g>
<defs>
<filter id="filter0_d_1642_29792" x="0" y="109.84" width="198.332" height="120" filterUnits="userSpaceOnUse" color-interpolation-filters="sRGB">
<feFlood flood-opacity="0" result="BackgroundImageFix"/>
<feColorMatrix in="SourceAlpha" type="matrix" values="0 0 0 0 0 0 0 0 0 0 0 0 0 0 0 0 0 0 127 0" result="hardAlpha"/>
<feOffset dy="4"/>
<feGaussianBlur stdDeviation="2"/>
<feComposite in2="hardAlpha" operator="out"/>
<feColorMatrix type="matrix" values="0 0 0 0 0.176471 0 0 0 0 0.160784 0 0 0 0 0.360784 0 0 0 1 0"/>
<feBlend mode="normal" in2="BackgroundImageFix" result="effect1_dropShadow_1642_29792"/>
<feBlend mode="normal" in="SourceGraphic" in2="effect1_dropShadow_1642_29792" result="shape"/>
</filter>
<filter id="filter1_d_1642_29792" x="214.332" y="109.84" width="198.332" height="120" filterUnits="userSpaceOnUse" color-interpolation-filters="sRGB">
<feFlood flood-opacity="0" result="BackgroundImageFix"/>
<feColorMatrix in="SourceAlpha" type="matrix" values="0 0 0 0 0 0 0 0 0 0 0 0 0 0 0 0 0 0 127 0" result="hardAlpha"/>
<feOffset dy="4"/>
<feGaussianBlur stdDeviation="2"/>
<feComposite in2="hardAlpha" operator="out"/>
<feColorMatrix type="matrix" values="0 0 0 0 0.176471 0 0 0 0 0.160784 0 0 0 0 0.360784 0 0 0 1 0"/>
<feBlend mode="normal" in2="BackgroundImageFix" result="effect1_dropShadow_1642_29792"/>
<feBlend mode="normal" in="SourceGraphic" in2="effect1_dropShadow_1642_29792" result="shape"/>
</filter>
<filter id="filter2_d_1642_29792" x="428.668" y="109.84" width="198.332" height="120" filterUnits="userSpaceOnUse" color-interpolation-filters="sRGB">
<feFlood flood-opacity="0" result="BackgroundImageFix"/>
<feColorMatrix in="SourceAlpha" type="matrix" values="0 0 0 0 0 0 0 0 0 0 0 0 0 0 0 0 0 0 127 0" result="hardAlpha"/>
<feOffset dy="4"/>
<feGaussianBlur stdDeviation="2"/>
<feComposite in2="hardAlpha" operator="out"/>
<feColorMatrix type="matrix" values="0 0 0 0 0.176471 0 0 0 0 0.160784 0 0 0 0 0.360784 0 0 0 1 0"/>
<feBlend mode="normal" in2="BackgroundImageFix" result="effect1_dropShadow_1642_29792"/>
<feBlend mode="normal" in="SourceGraphic" in2="effect1_dropShadow_1642_29792" result="shape"/>
</filter>
<filter id="filter3_d_1642_29792" x="643" y="109.84" width="198.332" height="120" filterUnits="userSpaceOnUse" color-interpolation-filters="sRGB">
<feFlood flood-opacity="0" result="BackgroundImageFix"/>
<feColorMatrix in="SourceAlpha" type="matrix" values="0 0 0 0 0 0 0 0 0 0 0 0 0 0 0 0 0 0 127 0" result="hardAlpha"/>
<feOffset dy="4"/>
<feGaussianBlur stdDeviation="2"/>
<feComposite in2="hardAlpha" operator="out"/>
<feColorMatrix type="matrix" values="0 0 0 0 0.176471 0 0 0 0 0.160784 0 0 0 0 0.360784 0 0 0 1 0"/>
<feBlend mode="normal" in2="BackgroundImageFix" result="effect1_dropShadow_1642_29792"/>
<feBlend mode="normal" in="SourceGraphic" in2="effect1_dropShadow_1642_29792" result="shape"/>
</filter>
<filter id="filter4_d_1642_29792" x="857.332" y="109.84" width="198.332" height="120" filterUnits="userSpaceOnUse" color-interpolation-filters="sRGB">
<feFlood flood-opacity="0" result="BackgroundImageFix"/>
<feColorMatrix in="SourceAlpha" type="matrix" values="0 0 0 0 0 0 0 0 0 0 0 0 0 0 0 0 0 0 127 0" result="hardAlpha"/>
<feOffset dy="4"/>
<feGaussianBlur stdDeviation="2"/>
<feComposite in2="hardAlpha" operator="out"/>
<feColorMatrix type="matrix" values="0 0 0 0 0.176471 0 0 0 0 0.160784 0 0 0 0 0.360784 0 0 0 1 0"/>
<feBlend mode="normal" in2="BackgroundImageFix" result="effect1_dropShadow_1642_29792"/>
<feBlend mode="normal" in="SourceGraphic" in2="effect1_dropShadow_1642_29792" result="shape"/>
</filter>
<filter id="filter5_d_1642_29792" x="1071.67" y="109.84" width="198.332" height="120" filterUnits="userSpaceOnUse" color-interpolation-filters="sRGB">
<feFlood flood-opacity="0" result="BackgroundImageFix"/>
<feColorMatrix in="SourceAlpha" type="matrix" values="0 0 0 0 0 0 0 0 0 0 0 0 0 0 0 0 0 0 127 0" result="hardAlpha"/>
<feOffset dy="4"/>
<feGaussianBlur stdDeviation="2"/>
<feComposite in2="hardAlpha" operator="out"/>
<feColorMatrix type="matrix" values="0 0 0 0 0.176471 0 0 0 0 0.160784 0 0 0 0 0.360784 0 0 0 1 0"/>
<feBlend mode="normal" in2="BackgroundImageFix" result="effect1_dropShadow_1642_29792"/>
<feBlend mode="normal" in="SourceGraphic" in2="effect1_dropShadow_1642_29792" result="shape"/>
</filter>
<clipPath id="clip0_1642_29792">
<rect width="106.571" height="76.781" fill="white" transform="matrix(0.929583 -0.368614 -0.338365 -0.941015 718.98 111.66)"/>
</clipPath>
</defs>
</svg>
